<?xml version="1.0" encoding="UTF-8"?> <svg xmlns="http://www.w3.org/2000/svg" id="Слой_1" width="512" height="452.8" viewBox="0 0 512 452.8"><style>.st0{fill:#0cf}</style><path class="st0" d="M494.5 128.9h-80.1l47.8-53.3c2.7-3 4-6.8 3.8-10.7-.2-4-2-7.6-4.9-10.3l-20.6-18.5c-6.1-5.5-15.5-5-21 1.1l-82.3 91.6H193.9c-4.1 0-7.5 3.4-7.5 7.5s3.4 7.5 7.5 7.5h129.8l-33.5 37.3c-2.7 3-4 6.8-3.8 10.7 0 .5.1.9.1 1.4L275 224.3c-1.7 4.6-.4 9.7 3.2 13 2.2 2 5.1 3.1 8 3.1 1.8 0 3.6-.4 5.3-1.3l29.7-14.8h1.4c4-.2 7.6-2 10.3-4.9l67.9-75.6h93.6c1.4 0 2.5 1.1 2.5 2.5v289c0 1.4-1.1 2.5-2.5 2.5h-54.6c-4.1 0-7.5 3.4-7.5 7.5s3.4 7.5 7.5 7.5h54.6c9.6 0 17.5-7.9 17.5-17.5v-289c.1-9.6-7.8-17.4-17.4-17.4zM451 65.7l-8.9 9.9-20.4-18.3 8.9-9.9L451 65.7zm-39.3 2.7l4.6 4.1-110.2 122.7-4.6-4.2L411.7 68.4zM297.3 207.5l8.7 7.8-14.1 7 5.4-14.8zm24.6 1.9l-4.6-4.1L427.4 82.6l4.6 4.1-110.1 122.7z"></path><path class="st0" d="M407.3 437.8H69.9c-30.3 0-54.9-24.6-54.9-54.9v-4c0-30.3 24.6-54.9 54.9-54.9h15.4c9.7 0 17.5-7.9 17.5-17.5V143.9h58.4c4.1 0 7.5-3.4 7.5-7.5s-3.4-7.5-7.5-7.5h-58.4v-26c0-4.1-3.4-7.5-7.5-7.5s-7.5 3.4-7.5 7.5v203.7c0 1.4-1.1 2.5-2.5 2.5H69.9c-22.3 0-42.1 10.5-54.9 26.7V69.9C15 39.6 39.6 15 69.9 15h15.4c1.4 0 2.5 1.1 2.5 2.5v52.7c0 4.1 3.4 7.5 7.5 7.5s7.5-3.4 7.5-7.5V17.5C102.9 7.9 95 0 85.4 0H69.9C31.4 0 0 31.4 0 69.9v312.9c0 38.6 31.4 69.9 69.9 69.9h337.3c4.1 0 7.5-3.4 7.5-7.5.1-4-3.3-7.4-7.4-7.4z"></path><path class="st0" d="M400.2 208.1c-30.6 0-55.8 24-57.6 54.2h-34.5c-4.1 0-7.5 3.4-7.5 7.5v85.7c0 4.1 3.4 7.5 7.5 7.5h85.7c4.1 0 7.5-3.4 7.5-7.5v-32.1c31.3-.6 56.6-26.2 56.6-57.6 0-31.9-25.9-57.7-57.7-57.7zm-13.9 98c-13.1-4.5-23.4-15.3-27.2-28.8h27.2v28.8zm-70.7 41.8v-70.7h28.1c4.4 21.8 21.2 39.1 42.6 44.4v26.2h-70.7zm85.7-39.5v-38.6c0-4.1-3.4-7.5-7.5-7.5h-36.1c1.8-21.9 20.2-39.2 42.5-39.2 23.5 0 42.7 19.1 42.7 42.7 0 23.1-18.6 42-41.6 42.6z"></path><path class="st0" d="M428.1 328.6c-4.1 0-7.5 3.4-7.5 7.5s3.4 7.5 7.5 7.5h16.7c4.1 0 7.5-3.4 7.5-7.5s-3.4-7.5-7.5-7.5h-16.7zM452.2 355.4c0-4.1-3.4-7.5-7.5-7.5H428c-4.1 0-7.5 3.4-7.5 7.5s3.4 7.5 7.5 7.5h16.7c4.2 0 7.5-3.3 7.5-7.5zM137 205.1h12c4.1 0 7.5-3.4 7.5-7.5s-3.4-7.5-7.5-7.5h-12c-4.1 0-7.5 3.4-7.5 7.5s3.4 7.5 7.5 7.5zM137 226.9h57.9c4.1 0 7.5-3.4 7.5-7.5s-3.4-7.5-7.5-7.5H137c-4.1 0-7.5 3.4-7.5 7.5 0 4.2 3.4 7.5 7.5 7.5zM182.9 205.1h12c4.1 0 7.5-3.4 7.5-7.5s-3.4-7.5-7.5-7.5h-12c-4.1 0-7.5 3.4-7.5 7.5s3.4 7.5 7.5 7.5zM240.8 190.1h-12c-4.1 0-7.5 3.4-7.5 7.5s3.4 7.5 7.5 7.5h12c4.1 0 7.5-3.4 7.5-7.5 0-4.2-3.4-7.5-7.5-7.5zM137 248.6h57.9c4.1 0 7.5-3.4 7.5-7.5s-3.4-7.5-7.5-7.5H137c-4.1 0-7.5 3.4-7.5 7.5s3.4 7.5 7.5 7.5zM129.5 262.8c0 4.1 3.4 7.5 7.5 7.5h91.8c4.1 0 7.5-3.4 7.5-7.5s-3.4-7.5-7.5-7.5H137c-4.1 0-7.5 3.3-7.5 7.5zM248.3 284.5c0-4.1-3.4-7.5-7.5-7.5H137c-4.1 0-7.5 3.4-7.5 7.5s3.4 7.5 7.5 7.5h103.8c4.1 0 7.5-3.4 7.5-7.5zM165.2 319.4c0-4.1-3.4-7.5-7.5-7.5H137c-4.1 0-7.5 3.4-7.5 7.5v20.7c0 4.1 3.4 7.5 7.5 7.5h20.7c4.1 0 7.5-3.4 7.5-7.5v-20.7zm-15 13.2h-5.7v-5.7h5.7v5.7zM214.8 319.4c0-4.1-3.4-7.5-7.5-7.5h-20.7c-4.1 0-7.5 3.4-7.5 7.5v20.7c0 4.1 3.4 7.5 7.5 7.5h20.7c4.1 0 7.5-3.4 7.5-7.5v-20.7zm-15 13.2h-5.7v-5.7h5.7v5.7zM264.3 319.4c0-4.1-3.4-7.5-7.5-7.5h-20.7c-4.1 0-7.5 3.4-7.5 7.5v20.7c0 4.1 3.4 7.5 7.5 7.5h20.7c4.1 0 7.5-3.4 7.5-7.5v-20.7zm-15 13.2h-5.7v-5.7h5.7v5.7zM157.7 364.6H137c-4.1 0-7.5 3.4-7.5 7.5v20.7c0 4.1 3.4 7.5 7.5 7.5h20.7c4.1 0 7.5-3.4 7.5-7.5v-20.7c0-4.2-3.4-7.5-7.5-7.5zm-7.5 20.7h-5.7v-5.7h5.7v5.7zM207.3 364.6h-20.7c-4.1 0-7.5 3.4-7.5 7.5v20.7c0 4.1 3.4 7.5 7.5 7.5h20.7c4.1 0 7.5-3.4 7.5-7.5v-20.7c0-4.2-3.4-7.5-7.5-7.5zm-7.5 20.7h-5.7v-5.7h5.7v5.7zM236.2 400.3h20.7c4.1 0 7.5-3.4 7.5-7.5v-20.7c0-4.1-3.4-7.5-7.5-7.5h-20.7c-4.1 0-7.5 3.4-7.5 7.5v20.7c0 4.1 3.3 7.5 7.5 7.5zm7.5-20.7h5.7v5.7h-5.7v-5.7z"></path></svg> 