<?xml version="1.0" encoding="utf-8"?>
<!-- Generator: Adobe Illustrator 22.1.0, SVG Export Plug-In . SVG Version: 6.00 Build 0)  -->
<svg version="1.1" id="Слой_1" xmlns="http://www.w3.org/2000/svg" xmlns:xlink="http://www.w3.org/1999/xlink" x="0px" y="0px"
	 width="512px" height="452.8px" viewBox="0 0 512 452.8" style="enable-background:new 0 0 512 452.8;" xml:space="preserve">
<style type="text/css">
	.st0{fill:#66BE55;}
</style>
<path class="st0" d="M494.5,128.9h-80.1l47.8-53.3c2.7-3,4-6.8,3.8-10.7c-0.2-4-2-7.6-4.9-10.3l-20.6-18.5c-6.1-5.5-15.5-5-21,1.1
	l-82.3,91.6H193.9c-4.1,0-7.5,3.4-7.5,7.5s3.4,7.5,7.5,7.5h129.8l-33.5,37.3c-2.7,3-4,6.8-3.8,10.7c0,0.5,0.1,0.9,0.1,1.4L275,224.3
	c-1.7,4.6-0.4,9.7,3.2,13c2.2,2,5.1,3.1,8,3.1c1.8,0,3.6-0.4,5.3-1.3l29.7-14.8h1.4c4-0.2,7.6-2,10.3-4.9l67.9-75.6h93.6
	c1.4,0,2.5,1.1,2.5,2.5v289c0,1.4-1.1,2.5-2.5,2.5h-54.6c-4.1,0-7.5,3.4-7.5,7.5s3.4,7.5,7.5,7.5h54.6c9.6,0,17.5-7.9,17.5-17.5
	v-289C512,136.7,504.1,128.9,494.5,128.9L494.5,128.9z M451,65.7l-8.9,9.9l-20.4-18.3l8.9-9.9L451,65.7z M411.7,68.4l4.6,4.1
	L306.1,195.2l-4.6-4.2C301.5,191,411.7,68.4,411.7,68.4z M297.3,207.5l8.7,7.8l-14.1,7L297.3,207.5z M321.9,209.4l-4.6-4.1
	L427.4,82.6l4.6,4.1L321.9,209.4z"/>
<path class="st0" d="M407.3,437.8H69.9c-30.3,0-54.9-24.6-54.9-54.9v-4c0-30.3,24.6-54.9,54.9-54.9h15.4c9.7,0,17.5-7.9,17.5-17.5
	V143.9h58.4c4.1,0,7.5-3.4,7.5-7.5s-3.4-7.5-7.5-7.5h-58.4v-26c0-4.1-3.4-7.5-7.5-7.5s-7.5,3.4-7.5,7.5v203.7c0,1.4-1.1,2.5-2.5,2.5
	H69.9c-22.3,0-42.1,10.5-54.9,26.7V69.9C15,39.6,39.6,15,69.9,15h15.4c1.4,0,2.5,1.1,2.5,2.5v52.7c0,4.1,3.4,7.5,7.5,7.5
	s7.5-3.4,7.5-7.5V17.5C102.9,7.9,95,0,85.4,0H69.9C31.4,0,0,31.4,0,69.9v312.9c0,38.6,31.4,69.9,69.9,69.9h337.3
	c4.1,0,7.5-3.4,7.5-7.5C414.8,441.2,411.4,437.8,407.3,437.8z"/>
<path class="st0" d="M400.2,208.1c-30.6,0-55.8,24-57.6,54.2h-34.5c-4.1,0-7.5,3.4-7.5,7.5v85.7c0,4.1,3.4,7.5,7.5,7.5h85.7
	c4.1,0,7.5-3.4,7.5-7.5v-32.1c31.3-0.6,56.6-26.2,56.6-57.6C457.9,233.9,432,208.1,400.2,208.1L400.2,208.1z M386.3,306.1
	c-13.1-4.5-23.4-15.3-27.2-28.8h27.2V306.1z M315.6,347.9v-70.7h28.1c4.4,21.8,21.2,39.1,42.6,44.4v26.2L315.6,347.9L315.6,347.9z
	 M401.3,308.4v-38.6c0-4.1-3.4-7.5-7.5-7.5h-36.1c1.8-21.9,20.2-39.2,42.5-39.2c23.5,0,42.7,19.1,42.7,42.7
	C442.9,288.9,424.3,307.8,401.3,308.4z"/>
<path class="st0" d="M428.1,328.6c-4.1,0-7.5,3.4-7.5,7.5s3.4,7.5,7.5,7.5h16.7c4.1,0,7.5-3.4,7.5-7.5s-3.4-7.5-7.5-7.5H428.1z
	 M452.2,355.4c0-4.1-3.4-7.5-7.5-7.5H428c-4.1,0-7.5,3.4-7.5,7.5s3.4,7.5,7.5,7.5h16.7C448.9,362.9,452.2,359.6,452.2,355.4z
	 M137,205.1h12c4.1,0,7.5-3.4,7.5-7.5s-3.4-7.5-7.5-7.5h-12c-4.1,0-7.5,3.4-7.5,7.5S132.9,205.1,137,205.1z M137,226.9h57.9
	c4.1,0,7.5-3.4,7.5-7.5s-3.4-7.5-7.5-7.5H137c-4.1,0-7.5,3.4-7.5,7.5C129.5,223.6,132.9,226.9,137,226.9z M182.9,205.1h12
	c4.1,0,7.5-3.4,7.5-7.5s-3.4-7.5-7.5-7.5h-12c-4.1,0-7.5,3.4-7.5,7.5S178.8,205.1,182.9,205.1z M240.8,190.1h-12
	c-4.1,0-7.5,3.4-7.5,7.5s3.4,7.5,7.5,7.5h12c4.1,0,7.5-3.4,7.5-7.5C248.3,193.4,244.9,190.1,240.8,190.1z M137,248.6h57.9
	c4.1,0,7.5-3.4,7.5-7.5s-3.4-7.5-7.5-7.5H137c-4.1,0-7.5,3.4-7.5,7.5S132.9,248.6,137,248.6z M129.5,262.8c0,4.1,3.4,7.5,7.5,7.5
	h91.8c4.1,0,7.5-3.4,7.5-7.5s-3.4-7.5-7.5-7.5H137C132.9,255.3,129.5,258.6,129.5,262.8z M248.3,284.5c0-4.1-3.4-7.5-7.5-7.5H137
	c-4.1,0-7.5,3.4-7.5,7.5s3.4,7.5,7.5,7.5h103.8C244.9,292,248.3,288.6,248.3,284.5z M165.2,319.4c0-4.1-3.4-7.5-7.5-7.5H137
	c-4.1,0-7.5,3.4-7.5,7.5v20.7c0,4.1,3.4,7.5,7.5,7.5h20.7c4.1,0,7.5-3.4,7.5-7.5V319.4z M150.2,332.6h-5.7v-5.7h5.7V332.6z
	 M214.8,319.4c0-4.1-3.4-7.5-7.5-7.5h-20.7c-4.1,0-7.5,3.4-7.5,7.5v20.7c0,4.1,3.4,7.5,7.5,7.5h20.7c4.1,0,7.5-3.4,7.5-7.5V319.4z
	 M199.8,332.6h-5.7v-5.7h5.7V332.6z M264.3,319.4c0-4.1-3.4-7.5-7.5-7.5h-20.7c-4.1,0-7.5,3.4-7.5,7.5v20.7c0,4.1,3.4,7.5,7.5,7.5
	h20.7c4.1,0,7.5-3.4,7.5-7.5V319.4z M249.3,332.6h-5.7v-5.7h5.7V332.6z M157.7,364.6H137c-4.1,0-7.5,3.4-7.5,7.5v20.7
	c0,4.1,3.4,7.5,7.5,7.5h20.7c4.1,0,7.5-3.4,7.5-7.5v-20.7C165.2,367.9,161.8,364.6,157.7,364.6z M150.2,385.3h-5.7v-5.7h5.7V385.3z
	 M207.3,364.6h-20.7c-4.1,0-7.5,3.4-7.5,7.5v20.7c0,4.1,3.4,7.5,7.5,7.5h20.7c4.1,0,7.5-3.4,7.5-7.5v-20.7
	C214.8,367.9,211.4,364.6,207.3,364.6z M199.8,385.3h-5.7v-5.7h5.7V385.3z M236.2,400.3h20.7c4.1,0,7.5-3.4,7.5-7.5v-20.7
	c0-4.1-3.4-7.5-7.5-7.5h-20.7c-4.1,0-7.5,3.4-7.5,7.5v20.7C228.7,396.9,232,400.3,236.2,400.3z M243.7,379.6h5.7v5.7h-5.7V379.6z"/>
</svg>
