<?xml version="1.0" encoding="utf-8"?>
<!-- Generator: Adobe Illustrator 22.1.0, SVG Export Plug-In . SVG Version: 6.00 Build 0)  -->
<svg version="1.1" id="Слой_1" xmlns="http://www.w3.org/2000/svg" xmlns:xlink="http://www.w3.org/1999/xlink" x="0px" y="0px"
	 width="512px" height="460.6px" viewBox="0 0 512 460.6" style="enable-background:new 0 0 512 460.6;" xml:space="preserve">
<style type="text/css">
	.st0{fill:#66BE55;}
</style>
<path class="st0" d="M321.3,63l-9.4-9.4c-2.9-2.9-7.7-2.9-10.6,0s-2.9,7.7,0,10.6l9.4,9.4c1.5,1.5,3.4,2.2,5.3,2.2s3.8-0.7,5.3-2.2
	C324.3,70.7,324.3,65.9,321.3,63L321.3,63z M326.2,127.8c1.5,1.5,3.4,2.2,5.3,2.2s3.8-0.7,5.3-2.2c2.9-2.9,2.9-7.7,0-10.6l-9.4-9.4
	c-2.9-2.9-7.7-2.9-10.6,0s-2.9,7.7,0,10.6L326.2,127.8L326.2,127.8z M250.5,117.8c-2.9,2.9-2.9,7.7,0,10.6l9.4,9.4
	c1.5,1.5,3.4,2.2,5.3,2.2s3.8-0.7,5.3-2.2c2.9-2.9,2.9-7.7,0-10.6l-9.4-9.4C258.2,114.8,253.4,114.8,250.5,117.8L250.5,117.8z
	 M393.7,193c1.5,1.5,3.4,2.2,5.3,2.2s3.8-0.7,5.3-2.2c2.9-2.9,2.9-7.7,0-10.6l-9.4-9.4c-2.9-2.9-7.7-2.9-10.6,0s-2.9,7.7,0,10.6
	L393.7,193L393.7,193z M232.4,180.2c-2.9-2.9-7.7-2.9-10.6,0s-2.9,7.7,0,10.6l9.4,9.4c1.5,1.5,3.4,2.2,5.3,2.2s3.8-0.7,5.3-2.2
	c2.9-2.9,2.9-7.7,0-10.6L232.4,180.2z M373.2,232.7c-2.9,2.9-2.9,7.7,0,10.6l9.4,9.4c1.5,1.5,3.4,2.2,5.3,2.2s3.8-0.7,5.3-2.2
	c2.9-2.9,2.9-7.7,0-10.6l-9.4-9.4C380.9,229.8,376.1,229.8,373.2,232.7L373.2,232.7z"/>
<path class="st0" d="M504.5,445.6h-87.3v-34.5h57c3.9,0,7.2-1.7,9.2-4.7s2.2-6.8,0.7-10.3l-17-39.7c-1.6-3.8-6-5.6-9.8-3.9
	c-3.8,1.6-5.6,6-3.9,9.8l14.5,33.8h-50.7v-28.4c0-4.1-3.4-7.5-7.5-7.5s-7.5,3.4-7.5,7.5v28.4h-46.5l56.1-131l27,63.1
	c1.6,3.8,6,5.6,9.8,3.9c3.8-1.6,5.6-6,3.9-9.8L436,283.7c1-0.9,2-1.9,3-2.9c18.4-18.6,28.5-43.2,28.5-69.4
	c0-22.4-7.7-44.4-21.8-61.9c-12.3-15.2-28.9-26.5-47.4-32.3c1.2-6.1,1.8-12.3,1.8-18.6c0-4.1-3.4-7.5-7.5-7.5s-7.5,3.4-7.5,7.5
	c0,7.4-1,14.8-2.9,22c-0.5,2-0.2,4.1,0.8,5.8c1.1,1.8,2.8,3,4.8,3.5c18.1,4.2,34.6,14.5,46.3,29.1c12.1,15,18.5,33.1,18.5,52.5
	c0,21.5-8.1,41.8-22.8,57.4l-9.1-21.2c-1.7-4-5-6.4-8.9-6.4s-7.1,2.4-8.9,6.4l-19.8,46.2c-4.3,0.8-8.7,1.2-13.2,1.2
	c-3,0-5.6,1.8-6.8,4.6c-9.6,22.5-30.4,37.7-54.3,40.4v-86.2l35.9-35.9c2.9-2.9,2.9-7.7,0-10.6c-2.9-2.9-7.7-2.9-10.6,0l-25.3,25.3
	v-37.2c0-4.1-3.4-7.5-7.5-7.5s-7.5,3.4-7.5,7.5v88l-24.2-24.2c-2.9-2.9-7.7-2.9-10.6,0s-2.9,7.7,0,10.6l34.8,34.8v35.4
	c-11.3-1.3-21.8-5.3-30.9-11.6l-34.6-80.8c-1.7-4-5-6.4-8.9-6.4s-7.1,2.4-8.9,6.4l-10.1,23.6L173.1,226h12.7c4.1,0,7.6-1.9,9.3-5.1
	c1.8-3.2,1.5-7.2-0.6-10.6l-29.4-46.5c1.1-1.6,2.3-3.3,3.6-4.8c11.7-14.6,28.2-24.9,46.3-29.1c2-0.5,3.7-1.7,4.8-3.5
	c1-1.7,1.3-3.8,0.8-5.8c-1.9-7.2-2.9-14.6-2.9-22c0-46.2,37.6-83.7,83.7-83.7c34.2,0,64.6,20.5,77.5,52.1c1.6,3.8,5.9,5.7,9.8,4.1
	c3.8-1.6,5.7-5.9,4.1-9.8C377.6,24.1,341.7,0,301.4,0c-54.4,0-98.7,44.3-98.7,98.7c0,6.2,0.6,12.4,1.8,18.6
	c-18.5,5.8-35.1,17.1-47.4,32.3c-0.2,0.2-0.3,0.4-0.5,0.7l-19.7-31.2c-2.1-3.3-5.4-5.2-9-5.2c-3.6,0-6.9,1.9-9,5.2l-57.6,91.2
	c-2.2,3.4-2.4,7.4-0.6,10.6c1.8,3.2,5.3,5.1,9.3,5.1h12.7L45,288c-2.1,3.5-2.3,7.4-0.5,10.6s5.3,5.1,9.3,5.1H68l-39.4,66.6
	c-2,3.5-2.2,7.4-0.4,10.6c1.8,3.2,5.3,5,9.3,5H74c4.1,0,7.5-3.4,7.5-7.5s-3.4-7.5-7.5-7.5H45.6L85,304.3c2-3.5,2.2-7.4,0.4-10.6
	c-1.8-3.2-5.3-5-9.3-5H62l37.7-62c2.1-3.4,2.3-7.4,0.5-10.6s-5.3-5.1-9.3-5.1H78.4l49.4-78.1l49.4,78.1h-12.4c-4,0-7.5,1.9-9.3,5.1
	s-1.6,7.1,0.5,10.6l37.4,61.6l-0.2,0.5h-13.5c-4,0-7.5,1.9-9.3,5c-1.8,3.2-1.7,7.1,0.4,10.6l9.1,15.4L158,370.9h-48
	c-4.1,0-7.5,3.4-7.5,7.5s3.4,7.5,7.5,7.5h8.7v59.6H7.5c-4.1,0-7.5,3.4-7.5,7.5s3.4,7.5,7.5,7.5h497c4.1,0,7.5-3.4,7.5-7.5
	S508.6,445.6,504.5,445.6z M374.9,310c0.5,0,0.9-0.1,1.4-0.1L339.5,396c-1.5,3.6-1.3,7.3,0.7,10.3s5.3,4.7,9.2,4.7h52.8v34.5h-93.3
	v-90.4C337.2,352.6,362.2,335.6,374.9,310L374.9,310z M293.9,355.2v90.4H225v-34.5h57c3.9,0,7.2-1.7,9.2-4.7s2.2-6.8,0.7-10.3
	l-19.6-45.8C279.2,352.8,286.4,354.5,293.9,355.2L293.9,355.2z M219.6,265.1l56.1,131H225v-28.4c0-4.1-3.4-7.5-7.5-7.5
	s-7.5,3.4-7.5,7.5v28.4h-46.5L219.6,265.1L219.6,265.1z M133.7,385.9h17.8l-4.3,10.1c-1.5,3.6-1.3,7.3,0.7,10.3s5.3,4.7,9.2,4.7H210
	v34.5h-76.2v-59.6H133.7z"/>
</svg>
