<?xml version="1.0" encoding="UTF-8"?> <svg xmlns="http://www.w3.org/2000/svg" id="Слой_1" width="512" height="460.6" viewBox="0 0 512 460.6"><style>.st0{fill:#0cf}</style><path class="st0" d="M321.3 63l-9.4-9.4c-2.9-2.9-7.7-2.9-10.6 0-2.9 2.9-2.9 7.7 0 10.6l9.4 9.4c1.5 1.5 3.4 2.2 5.3 2.2s3.8-.7 5.3-2.2c3-2.9 3-7.7 0-10.6zM326.2 127.8c1.5 1.5 3.4 2.2 5.3 2.2s3.8-.7 5.3-2.2c2.9-2.9 2.9-7.7 0-10.6l-9.4-9.4c-2.9-2.9-7.7-2.9-10.6 0-2.9 2.9-2.9 7.7 0 10.6l9.4 9.4zM250.5 117.8c-2.9 2.9-2.9 7.7 0 10.6l9.4 9.4c1.5 1.5 3.4 2.2 5.3 2.2s3.8-.7 5.3-2.2c2.9-2.9 2.9-7.7 0-10.6l-9.4-9.4c-2.9-3-7.7-3-10.6 0zM393.7 193c1.5 1.5 3.4 2.2 5.3 2.2s3.8-.7 5.3-2.2c2.9-2.9 2.9-7.7 0-10.6l-9.4-9.4c-2.9-2.9-7.7-2.9-10.6 0-2.9 2.9-2.9 7.7 0 10.6l9.4 9.4zM232.4 180.2c-2.9-2.9-7.7-2.9-10.6 0s-2.9 7.7 0 10.6l9.4 9.4c1.5 1.5 3.4 2.2 5.3 2.2s3.8-.7 5.3-2.2c2.9-2.9 2.9-7.7 0-10.6l-9.4-9.4zM373.2 232.7c-2.9 2.9-2.9 7.7 0 10.6l9.4 9.4c1.5 1.5 3.4 2.2 5.3 2.2s3.8-.7 5.3-2.2c2.9-2.9 2.9-7.7 0-10.6l-9.4-9.4c-2.9-2.9-7.7-2.9-10.6 0z"></path><path class="st0" d="M504.5 445.6h-87.3v-34.5h57c3.9 0 7.2-1.7 9.2-4.7 2-3 2.2-6.8.7-10.3l-17-39.7c-1.6-3.8-6-5.6-9.8-3.9-3.8 1.6-5.6 6-3.9 9.8l14.5 33.8h-50.7v-28.4c0-4.1-3.4-7.5-7.5-7.5s-7.5 3.4-7.5 7.5v28.4h-46.5l56.1-131 27 63.1c1.6 3.8 6 5.6 9.8 3.9 3.8-1.6 5.6-6 3.9-9.8L436 283.7c1-.9 2-1.9 3-2.9 18.4-18.6 28.5-43.2 28.5-69.4 0-22.4-7.7-44.4-21.8-61.9-12.3-15.2-28.9-26.5-47.4-32.3 1.2-6.1 1.8-12.3 1.8-18.6 0-4.1-3.4-7.5-7.5-7.5s-7.5 3.4-7.5 7.5c0 7.4-1 14.8-2.9 22-.5 2-.2 4.1.8 5.8 1.1 1.8 2.8 3 4.8 3.5 18.1 4.2 34.6 14.5 46.3 29.1 12.1 15 18.5 33.1 18.5 52.5 0 21.5-8.1 41.8-22.8 57.4l-9.1-21.2c-1.7-4-5-6.4-8.9-6.4s-7.1 2.4-8.9 6.4l-19.8 46.2c-4.3.8-8.7 1.2-13.2 1.2-3 0-5.6 1.8-6.8 4.6-9.6 22.5-30.4 37.7-54.3 40.4v-86.2l35.9-35.9c2.9-2.9 2.9-7.7 0-10.6-2.9-2.9-7.7-2.9-10.6 0l-25.3 25.3v-37.2c0-4.1-3.4-7.5-7.5-7.5s-7.5 3.4-7.5 7.5v88l-24.2-24.2c-2.9-2.9-7.7-2.9-10.6 0-2.9 2.9-2.9 7.7 0 10.6l34.8 34.8v35.4c-11.3-1.3-21.8-5.3-30.9-11.6l-34.6-80.8c-1.7-4-5-6.4-8.9-6.4s-7.1 2.4-8.9 6.4l-10.1 23.6-27.3-45.3h12.7c4.1 0 7.6-1.9 9.3-5.1 1.8-3.2 1.5-7.2-.6-10.6l-29.4-46.5c1.1-1.6 2.3-3.3 3.6-4.8 11.7-14.6 28.2-24.9 46.3-29.1 2-.5 3.7-1.7 4.8-3.5 1-1.7 1.3-3.8.8-5.8-1.9-7.2-2.9-14.6-2.9-22 0-46.2 37.6-83.7 83.7-83.7 34.2 0 64.6 20.5 77.5 52.1 1.6 3.8 5.9 5.7 9.8 4.1 3.8-1.6 5.7-5.9 4.1-9.8C377.6 24.1 341.7 0 301.4 0c-54.4 0-98.7 44.3-98.7 98.7 0 6.2.6 12.4 1.8 18.6-18.5 5.8-35.1 17.1-47.4 32.3-.2.2-.3.4-.5.7l-19.7-31.2c-2.1-3.3-5.4-5.2-9-5.2-3.6 0-6.9 1.9-9 5.2l-57.6 91.2c-2.2 3.4-2.4 7.4-.6 10.6 1.8 3.2 5.3 5.1 9.3 5.1h12.7L45 288c-2.1 3.5-2.3 7.4-.5 10.6 1.8 3.2 5.3 5.1 9.3 5.1H68l-39.4 66.6c-2 3.5-2.2 7.4-.4 10.6 1.8 3.2 5.3 5 9.3 5H74c4.1 0 7.5-3.4 7.5-7.5s-3.4-7.5-7.5-7.5H45.6L85 304.3c2-3.5 2.2-7.4.4-10.6-1.8-3.2-5.3-5-9.3-5H62l37.7-62c2.1-3.4 2.3-7.4.5-10.6s-5.3-5.1-9.3-5.1H78.4l49.4-78.1 49.4 78.1h-12.4c-4 0-7.5 1.9-9.3 5.1s-1.6 7.1.5 10.6l37.4 61.6-.2.5h-13.5c-4 0-7.5 1.9-9.3 5-1.8 3.2-1.7 7.1.4 10.6l9.1 15.4-21.9 51.1h-48c-4.1 0-7.5 3.4-7.5 7.5s3.4 7.5 7.5 7.5h8.7v59.6H7.5c-4.1 0-7.5 3.4-7.5 7.5s3.4 7.5 7.5 7.5h497c4.1 0 7.5-3.4 7.5-7.5s-3.4-7.4-7.5-7.4zM374.9 310c.5 0 .9-.1 1.4-.1L339.5 396c-1.5 3.6-1.3 7.3.7 10.3s5.3 4.7 9.2 4.7h52.8v34.5h-93.3v-90.4c28.3-2.5 53.3-19.5 66-45.1zm-81 45.2v90.4H225v-34.5h57c3.9 0 7.2-1.7 9.2-4.7 2-3 2.2-6.8.7-10.3l-19.6-45.8c6.9 2.5 14.1 4.2 21.6 4.9zm-74.3-90.1l56.1 131H225v-28.4c0-4.1-3.4-7.5-7.5-7.5s-7.5 3.4-7.5 7.5v28.4h-46.5l56.1-131zm-85.9 120.8h17.8l-4.3 10.1c-1.5 3.6-1.3 7.3.7 10.3 2 3 5.3 4.7 9.2 4.7H210v34.5h-76.2v-59.6z"></path></svg> 