<?xml version="1.0" encoding="utf-8"?>
<!-- Generator: Adobe Illustrator 22.1.0, SVG Export Plug-In . SVG Version: 6.00 Build 0)  -->
<svg version="1.1" id="Слой_1" xmlns="http://www.w3.org/2000/svg" xmlns:xlink="http://www.w3.org/1999/xlink" x="0px" y="0px"
	 width="480px" height="480px" viewBox="0 0 480 480" style="enable-background:new 0 0 480 480;" xml:space="preserve">
<style type="text/css">
	.st0{fill:#66BE55;}
</style>
<path class="st0" d="M65,264h32v-24h168c13.3,0,24,10.7,24,24v8h-8c-4.4,0-8,3.6-8,8v32c0,4.4,3.6,8,8,8h6.7l-22.6,150.8
	c-0.3,2.3,0.3,4.6,1.8,6.4s3.7,2.8,6.1,2.8h112c2.3,0,4.5-1,6.1-2.8c1.5-1.8,2.2-4.1,1.8-6.4L370.3,320h6.7c4.4,0,8-3.6,8-8v-32
	c0-4.4-3.6-8-8-8h-8v-24c-0.1-48.6-39.4-87.9-88-88h-19.1l-13.7-27.6c-1.4-2.7-4.2-4.4-7.2-4.4h-8v-24c0-4.4-3.6-8-8-8h-8V80h64
	c4.4,0,8-3.6,8-8V40c0-4.4-3.6-8-8-8h-64v-8c0-13.3-10.7-24-24-24s-24,10.7-24,24v8h-64c-4.4,0-8,3.6-8,8v32c0,4.4,3.6,8,8,8h64v16
	h-8c-4.4,0-8,3.6-8,8v24h-8c-3,0-5.8,1.7-7.2,4.4L124.1,160H97v-24H65v-16H1v160h64V264z M289,288h80v16h-80V288z M375.7,464h-15.5
	l-7.2-64.9l-15.9,1.8l7,63.1h-29.6l14.4-86.7l-15.8-2.6L298.2,464h-15.9l21.6-144h50.2L375.7,464L375.7,464z M153,64V48h32v16H153z
	 M233,48v16h-32V48H233z M273,64h-24V48h24V64z M185,24c0-4.4,3.6-8,8-8s8,3.6,8,8v8h-16V24z M113,48h24v16h-24V48z M185,80h16v16
	h-16V80z M169,112h48v16h-48V112z M128.2,176l39.2,7.8l3.1-15.7l-29.7-6l9.1-18.2H236l9.1,18.2l-29.8,6l3.1,15.7l39.3-7.8H281
	c39.7,0,72,32.3,72,72v24h-48v-8c0-22.1-17.9-40-40-40H97v-48H128.2z M81,152v96H65v-96H81z M17,264V136h32v128H17z M426.8,371
	c-22.2,27.3-17.9,68.2-17.7,69.9c0.4,3.4,2.9,6.1,6.2,6.8c0.6,0.1,1.2,0.2,1.8,0.2c2.8,0,5.4-1.4,6.9-3.8c0.1-0.1,6.4-9.6,37.4-29.4
	c11.6-5.9,18.4-18.3,17.3-31.2c-2-11.2-10.3-20.3-21.3-23.2C445.9,357.3,433.8,361.5,426.8,371L426.8,371z M449.7,375.4
	c1.1,0,2.2,0.2,3.3,0.5c4.9,1.3,8.7,5.2,9.7,10.2c0.8,5.2-2.8,10.7-10,15.3c-9.6,6-18.8,12.5-27.6,19.6c0.8-14.3,5.7-28.1,14.1-39.7
	C441.6,377.6,445.5,375.5,449.7,375.4z"/>
<path class="st0" d="M185.2,372.2c-10.3,5.2-16.9,15.7-17.1,27.2c0.4,13.8,8.6,26.1,21.2,31.7c16.7,7.9,32.1,18.1,45.9,30.4
	c2.2,2.4,5.6,3.2,8.7,2.1s5.1-4,5.2-7.2c0.1-2.3,1.6-57.1-27.2-78.7C211.7,368.9,197.4,366.8,185.2,372.2L185.2,372.2z M232.2,438.4
	c-11.3-8-23.2-15.2-35.5-21.5c-7.2-2.8-12.1-9.6-12.7-17.3c0.1-5.5,3.2-10.6,8.2-13.1c2-1,4.1-1.5,6.3-1.4c5,0.3,9.8,2.1,13.6,5.3
	C225.1,400.1,230.4,421.7,232.2,438.4L232.2,438.4z M249,368h16v16h-16V368z M393,344h16v16h-16V344z M217,320h16v16h-16V320z
	 M425,280h16v16h-16V280z"/>
</svg>
