<?xml version="1.0" encoding="utf-8"?>
<!-- Generator: Adobe Illustrator 22.1.0, SVG Export Plug-In . SVG Version: 6.00 Build 0)  -->
<svg version="1.1" id="Слой_1" xmlns="http://www.w3.org/2000/svg" xmlns:xlink="http://www.w3.org/1999/xlink" x="0px" y="0px"
	 width="512px" height="462.7px" viewBox="0 0 512 462.7" style="enable-background:new 0 0 512 462.7;" xml:space="preserve">
<style type="text/css">
	.st0{fill:#66BE55;}
</style>
<path class="st0" d="M307.2,291.1c0,4.7-3.8,8.5-8.5,8.5s-8.5-3.8-8.5-8.5s3.8-8.5,8.5-8.5S307.2,286.4,307.2,291.1z M307.2,376.5
	c0,4.7-3.8,8.5-8.5,8.5s-8.5-3.8-8.5-8.5s3.8-8.5,8.5-8.5C303.4,367.9,307.2,371.7,307.2,376.5z"/>
<path class="st0" d="M424,76.7c6.8-5.8,12.1-13.1,15.5-21.4c6.1-14.9,0.2-33-5.8-45.6C430,1.8,420.8-2,412.6,0.9
	c-13.2,4.7-30.1,13.3-36.3,28.2c-2.9,9.2-4,18.8-3.5,28.4V58c-2.3,0-4.7,0-6.9,0.1c-7.5-0.2-14.9,0.9-21.9,3.4
	c-14.9,6.2-23.6,23.2-28.2,36.3c-2.9,8.2,0.8,17.3,8.7,21.1c12.6,6,30.7,11.9,45.7,5.8c8.6-3.5,16.3-9.2,22.1-16.5
	c13,26.3,11.5,57.5-3.9,82.5c-5.4-7.6-11.6-14.6-18.6-20.8c-6.5-5.8-16.2-5.8-22.7,0c-11.7,10.4-31.3,31.6-31.3,57.2
	c0,1.5,0.1,2.9,0.1,4.3h-0.1c-58.1,0-102.4,72.7-102.4,102.4c0,38,41.4,99.1,96.4,102.2c2,0.1,3.9,0.2,6,0.2s3.9-0.1,5.8-0.2
	c16.5-0.4,33-3,48.9-7.5c3.6,5.6,7.7,10.9,12.4,15.6c15.4,15.4,38.7,18.5,55,18.5c2.8,0,5.4-0.1,7.7-0.2c8.6-0.5,15.5-7.4,16-16
	c0.9-14.7-0.3-41.1-15.5-59.2c45.6-40.5,69.8-99.8,65.5-160.7C507.2,165.7,474.8,110.4,424,76.7L424,76.7z M332.8,227.1
	c0-19.6,17.9-37.6,25.7-44.4c7.3,6.5,13.6,14,18.7,22.4c-11.9,12.5-27.4,21-44.3,24.5C332.9,228.8,332.8,228,332.8,227.1
	L332.8,227.1z M230.4,333.8c0-20.4,36.6-82.2,82.1-85.1l30.3,30.3c6.7,6.7,6.7,17.5,0,24.1c-6.4,6.4-10,15.1-10,24.1v4.4
	c0,9.1,3.6,17.7,10,24.1l1.3,1.3c6.3,6.3,6.7,16.4,0.9,23.2L311.9,419h-1.3C267.1,416.5,230.4,364.9,230.4,333.8L230.4,333.8z
	 M444.4,445.4c-10.3,0.6-35.7,0.5-49.5-13.3c-2.8-2.8-5.4-5.9-7.8-9.1c16.3-6.3,31.6-14.7,45.7-25.1
	C444.8,412.1,445,435.6,444.4,445.4L444.4,445.4z M429.6,378.6c-1,0.5-1.9,1.2-2.7,2.1c-26.4,20.8-58.1,33.7-91.5,37.2l22.6-26.4
	c11.5-13.6,10.8-33.7-1.8-46.3l-1.3-1.3c-3.2-3.2-5-7.5-5-12.1v-4.4c0-4.5,1.8-8.9,5-12.1c13.3-13.3,13.3-34.9,0-48.3l-20.4-20.3
	c23-4.3,43.9-16.4,59.1-34.2c0.3-0.2,0.5-0.5,0.7-0.8c26-31.1,31.2-74.6,13.3-111c-2.6-5.2-7.7-8.8-13.5-9.4
	c-0.6-0.1-1.2-0.1-1.8-0.1c-5.2,0-10.2,2.4-13.4,6.5c-4.1,5-9.3,8.8-15.3,11.2c-7,2.9-18.6,0.9-31.7-5.4
	c4.8-13.8,11.6-23.3,18.6-26.2c5.2-1.6,10.5-2.3,15.9-2.1c2.2-0.1,4.4-0.1,6.5-0.1c1.5,0,3,0,4.2-0.1c5.2,0,9.9-3.2,11.8-8l0.2-0.4
	c0.5-1.3,0.8-2.7,0.8-4.1l0.1-4.7c-0.4-7.4,0.3-14.8,2.2-22c2.9-7,12.5-13.8,26.2-18.7c6.3,13.2,8.3,24.8,5.4,31.7
	c-2.3,5.7-6,10.8-10.6,14.9c-4,3.4-6.2,8.4-5.8,13.7c0.3,5.4,3.2,10.3,7.7,13.3c47.3,31.5,77,83.5,79.9,140.3
	C497.7,287.7,473.5,342.5,429.6,378.6L429.6,378.6z M221.9,171.7c0,4.7-3.8,8.5-8.5,8.5s-8.5-3.8-8.5-8.5s3.8-8.5,8.5-8.5
	C218,163.1,221.9,166.9,221.9,171.7z M221.9,86.3c0,4.7-3.8,8.5-8.5,8.5s-8.5-3.8-8.5-8.5s3.8-8.5,8.5-8.5
	C218,77.8,221.9,81.6,221.9,86.3z"/>
<path class="st0" d="M0,222.8C-0.2,288.6,33,350,88,386c-6.8,5.8-12.1,13.1-15.5,21.4c-6.1,14.9-0.2,33,5.8,45.6
	c3.7,7.9,12.8,11.7,21,8.7c13.1-4.6,30.1-13.3,36.3-28.2c2.9-9.2,4-18.8,3.5-28.4v-0.4c2.2,0,4.7,0,6.9-0.1
	c7.5,0.2,14.9-0.9,21.9-3.4c14.9-6.2,23.6-23.1,28.2-36.3c2.9-8.2-0.8-17.3-8.7-21.1c-12.6-6-30.7-11.9-45.7-5.8
	c-8.6,3.5-16.2,9.2-22.1,16.5c-13-26.3-11.5-57.5,3.9-82.5c5.4,7.6,11.6,14.6,18.6,20.8c6.5,5.8,16.2,5.8,22.7,0
	c11.7-10.4,31.3-31.6,31.3-57.2c0-1.5-0.1-2.9-0.1-4.3h0.1c58.1,0,102.4-72.7,102.4-102.4c0-38-41.4-99.1-96.4-102.2
	c-1.8-0.1-3.5,0-5.3,0c-0.6-0.1-1.2-0.1-1.8,0c-1.5,0-3.1-0.1-4.6,0c-16.5,0.4-33,3-48.9,7.5c-3.6-5.6-7.7-10.9-12.4-15.6
	C111.1,0.5,82.2-0.7,66.6,0.3c-8.6,0.5-15.5,7.4-16,16C49.7,31,50.8,57.4,66,75.5C23.8,112.8-0.2,166.5,0,222.8z M104.4,362.1
	c2.6,5.2,7.7,8.8,13.5,9.4s11.5-1.8,15.2-6.4c4.1-5,9.3-8.8,15.3-11.3c7-2.9,18.6-0.9,31.7,5.4c-4.8,13.8-11.6,23.3-18.6,26.2
	c-5.2,1.6-10.5,2.3-15.9,2.1c-3.8,0.2-7.9,0.1-10.7,0.2c-5.2,0-9.9,3.2-11.8,8c-0.1,0.2-0.1,0.3-0.2,0.5c-0.5,1.3-0.7,2.7-0.8,4.1
	L122,405c0.4,7.4-0.3,14.8-2.2,22c-2.9,7-12.5,13.8-26.2,18.7c-6.3-13.2-8.3-24.8-5.4-31.7c2.3-5.7,6-10.8,10.7-14.8
	c4-3.3,6.2-8.4,5.8-13.6c-0.3-5.4-3.2-10.3-7.7-13.3C49.3,340.6,19.6,288,17,230.7c-2.5-57.3,22.5-112.3,67.3-148
	c0.2-0.1,0.4-0.3,0.6-0.4c26.4-20.8,58.1-33.7,91.6-37.2L154,71.2c-11.5,13.6-10.8,33.7,1.8,46.3l1.3,1.3c3.2,3.2,5,7.5,5,12.1v4.4
	c0,4.5-1.8,8.9-5,12.1c-13.3,13.3-13.3,34.9,0,48.3l20.4,20.3c-23,4.3-43.9,16.4-59,34.2c-0.3,0.3-0.5,0.5-0.7,0.8
	C91.7,282.2,86.5,325.7,104.4,362.1z M179.2,235.6c0,19.6-17.9,37.5-25.7,44.4c-7.3-6.5-13.6-14-18.7-22.4
	c11.9-12.5,27.4-21,44.3-24.5C179.1,234,179.2,234.7,179.2,235.6L179.2,235.6z M281.6,128.9c0,20.4-36.6,82.2-82.1,85.1l-30.3-30.3
	c-6.7-6.7-6.7-17.5,0-24.1c6.4-6.4,10-15.1,10-24.1V131c0-9.1-3.6-17.7-10-24.1l-1.3-1.3c-6.3-6.3-6.7-16.4-0.9-23.2l33.1-38.6h1.2
	C244.9,46.2,281.6,97.8,281.6,128.9L281.6,128.9z M67.6,17.3c10.3-0.6,35.7-0.5,49.5,13.3c2.8,2.8,5.4,5.9,7.8,9.1
	C108.6,46,93.2,54.4,79.2,64.8C67.2,50.7,67,27.1,67.6,17.3z"/>
<path class="st0" d="M80.6,113.4c-1.1,0.8-28.4,19.5-46.1,81.6c-0.6,2.2-0.4,4.5,0.8,6.5c1.1,2,2.9,3.4,5.1,4.1
	c0.8,0.2,1.5,0.3,2.3,0.3c3.8,0,7.2-2.5,8.2-6.2c15.7-54.9,38.8-71.7,39.3-72.1c3.9-2.6,4.9-7.9,2.3-11.8
	C89.8,111.8,84.5,110.7,80.6,113.4z M132.7,93.4c3.9-2.6,5-7.9,2.4-11.8s-7.9-5-11.8-2.4l-17.8,11.9c-3.9,2.6-4.9,7.9-2.3,11.8
	s7.9,5,11.8,2.4L132.7,93.4L132.7,93.4z"/>
</svg>
