<?xml version="1.0" encoding="UTF-8"?> <svg xmlns="http://www.w3.org/2000/svg" id="Слой_1" width="512" height="462.7" viewBox="0 0 512 462.7"><style>.st0{fill:#0cf}</style><path class="st0" d="M307.2 291.1c0 4.7-3.8 8.5-8.5 8.5s-8.5-3.8-8.5-8.5 3.8-8.5 8.5-8.5 8.5 3.8 8.5 8.5zM307.2 376.5c0 4.7-3.8 8.5-8.5 8.5s-8.5-3.8-8.5-8.5 3.8-8.5 8.5-8.5c4.7-.1 8.5 3.7 8.5 8.5z"></path><path class="st0" d="M424 76.7c6.8-5.8 12.1-13.1 15.5-21.4 6.1-14.9.2-33-5.8-45.6C430 1.8 420.8-2 412.6.9c-13.2 4.7-30.1 13.3-36.3 28.2-2.9 9.2-4 18.8-3.5 28.4v.5c-2.3 0-4.7 0-6.9.1-7.5-.2-14.9.9-21.9 3.4-14.9 6.2-23.6 23.2-28.2 36.3-2.9 8.2.8 17.3 8.7 21.1 12.6 6 30.7 11.9 45.7 5.8 8.6-3.5 16.3-9.2 22.1-16.5 13 26.3 11.5 57.5-3.9 82.5-5.4-7.6-11.6-14.6-18.6-20.8-6.5-5.8-16.2-5.8-22.7 0-11.7 10.4-31.3 31.6-31.3 57.2 0 1.5.1 2.9.1 4.3h-.1c-58.1 0-102.4 72.7-102.4 102.4 0 38 41.4 99.1 96.4 102.2 2 .1 3.9.2 6 .2s3.9-.1 5.8-.2c16.5-.4 33-3 48.9-7.5 3.6 5.6 7.7 10.9 12.4 15.6 15.4 15.4 38.7 18.5 55 18.5 2.8 0 5.4-.1 7.7-.2 8.6-.5 15.5-7.4 16-16 .9-14.7-.3-41.1-15.5-59.2 45.6-40.5 69.8-99.8 65.5-160.7-4.4-60.8-36.8-116.1-87.6-149.8zm-91.2 150.4c0-19.6 17.9-37.6 25.7-44.4 7.3 6.5 13.6 14 18.7 22.4-11.9 12.5-27.4 21-44.3 24.5 0-.8-.1-1.6-.1-2.5zM230.4 333.8c0-20.4 36.6-82.2 82.1-85.1l30.3 30.3c6.7 6.7 6.7 17.5 0 24.1-6.4 6.4-10 15.1-10 24.1v4.4c0 9.1 3.6 17.7 10 24.1l1.3 1.3c6.3 6.3 6.7 16.4.9 23.2L311.9 419h-1.3c-43.5-2.5-80.2-54.1-80.2-85.2zm214 111.6c-10.3.6-35.7.5-49.5-13.3-2.8-2.8-5.4-5.9-7.8-9.1 16.3-6.3 31.6-14.7 45.7-25.1 12 14.2 12.2 37.7 11.6 47.5zm-14.8-66.8c-1 .5-1.9 1.2-2.7 2.1-26.4 20.8-58.1 33.7-91.5 37.2l22.6-26.4c11.5-13.6 10.8-33.7-1.8-46.3l-1.3-1.3c-3.2-3.2-5-7.5-5-12.1v-4.4c0-4.5 1.8-8.9 5-12.1 13.3-13.3 13.3-34.9 0-48.3l-20.4-20.3c23-4.3 43.9-16.4 59.1-34.2.3-.2.5-.5.7-.8 26-31.1 31.2-74.6 13.3-111-2.6-5.2-7.7-8.8-13.5-9.4-.6-.1-1.2-.1-1.8-.1-5.2 0-10.2 2.4-13.4 6.5-4.1 5-9.3 8.8-15.3 11.2-7 2.9-18.6.9-31.7-5.4 4.8-13.8 11.6-23.3 18.6-26.2 5.2-1.6 10.5-2.3 15.9-2.1 2.2-.1 4.4-.1 6.5-.1 1.5 0 3 0 4.2-.1 5.2 0 9.9-3.2 11.8-8l.2-.4c.5-1.3.8-2.7.8-4.1l.1-4.7c-.4-7.4.3-14.8 2.2-22 2.9-7 12.5-13.8 26.2-18.7 6.3 13.2 8.3 24.8 5.4 31.7-2.3 5.7-6 10.8-10.6 14.9-4 3.4-6.2 8.4-5.8 13.7.3 5.4 3.2 10.3 7.7 13.3 47.3 31.5 77 83.5 79.9 140.3 2.7 56.7-21.5 111.5-65.4 147.6zM221.9 171.7c0 4.7-3.8 8.5-8.5 8.5s-8.5-3.8-8.5-8.5 3.8-8.5 8.5-8.5c4.6-.1 8.5 3.7 8.5 8.5zM221.9 86.3c0 4.7-3.8 8.5-8.5 8.5s-8.5-3.8-8.5-8.5 3.8-8.5 8.5-8.5c4.6 0 8.5 3.8 8.5 8.5z"></path><path class="st0" d="M0 222.8C-.2 288.6 33 350 88 386c-6.8 5.8-12.1 13.1-15.5 21.4-6.1 14.9-.2 33 5.8 45.6 3.7 7.9 12.8 11.7 21 8.7 13.1-4.6 30.1-13.3 36.3-28.2 2.9-9.2 4-18.8 3.5-28.4v-.4c2.2 0 4.7 0 6.9-.1 7.5.2 14.9-.9 21.9-3.4 14.9-6.2 23.6-23.1 28.2-36.3 2.9-8.2-.8-17.3-8.7-21.1-12.6-6-30.7-11.9-45.7-5.8-8.6 3.5-16.2 9.2-22.1 16.5-13-26.3-11.5-57.5 3.9-82.5 5.4 7.6 11.6 14.6 18.6 20.8 6.5 5.8 16.2 5.8 22.7 0 11.7-10.4 31.3-31.6 31.3-57.2 0-1.5-.1-2.9-.1-4.3h.1c58.1 0 102.4-72.7 102.4-102.4 0-38-41.4-99.1-96.4-102.2-1.8-.1-3.5 0-5.3 0-.6-.1-1.2-.1-1.8 0-1.5 0-3.1-.1-4.6 0-16.5.4-33 3-48.9 7.5-3.6-5.6-7.7-10.9-12.4-15.6C111.1.5 82.2-.7 66.6.3c-8.6.5-15.5 7.4-16 16-.9 14.7.2 41.1 15.4 59.2-42.2 37.3-66.2 91-66 147.3zm104.4 139.3c2.6 5.2 7.7 8.8 13.5 9.4 5.8.6 11.5-1.8 15.2-6.4 4.1-5 9.3-8.8 15.3-11.3 7-2.9 18.6-.9 31.7 5.4-4.8 13.8-11.6 23.3-18.6 26.2-5.2 1.6-10.5 2.3-15.9 2.1-3.8.2-7.9.1-10.7.2-5.2 0-9.9 3.2-11.8 8-.1.2-.1.3-.2.5-.5 1.3-.7 2.7-.8 4.1l-.1 4.7c.4 7.4-.3 14.8-2.2 22-2.9 7-12.5 13.8-26.2 18.7-6.3-13.2-8.3-24.8-5.4-31.7 2.3-5.7 6-10.8 10.7-14.8 4-3.3 6.2-8.4 5.8-13.6-.3-5.4-3.2-10.3-7.7-13.3-47.7-31.7-77.4-84.3-80-141.6-2.5-57.3 22.5-112.3 67.3-148 .2-.1.4-.3.6-.4 26.4-20.8 58.1-33.7 91.6-37.2L154 71.2c-11.5 13.6-10.8 33.7 1.8 46.3l1.3 1.3c3.2 3.2 5 7.5 5 12.1v4.4c0 4.5-1.8 8.9-5 12.1-13.3 13.3-13.3 34.9 0 48.3l20.4 20.3c-23 4.3-43.9 16.4-59 34.2-.3.3-.5.5-.7.8-26.1 31.2-31.3 74.7-13.4 111.1zm74.8-126.5c0 19.6-17.9 37.5-25.7 44.4-7.3-6.5-13.6-14-18.7-22.4 11.9-12.5 27.4-21 44.3-24.5 0 .9.1 1.6.1 2.5zm102.4-106.7c0 20.4-36.6 82.2-82.1 85.1l-30.3-30.3c-6.7-6.7-6.7-17.5 0-24.1 6.4-6.4 10-15.1 10-24.1V131c0-9.1-3.6-17.7-10-24.1l-1.3-1.3c-6.3-6.3-6.7-16.4-.9-23.2l33.1-38.6h1.2c43.6 2.4 80.3 54 80.3 85.1zM67.6 17.3c10.3-.6 35.7-.5 49.5 13.3 2.8 2.8 5.4 5.9 7.8 9.1-16.3 6.3-31.7 14.7-45.7 25.1-12-14.1-12.2-37.7-11.6-47.5z"></path><path class="st0" d="M80.6 113.4c-1.1.8-28.4 19.5-46.1 81.6-.6 2.2-.4 4.5.8 6.5 1.1 2 2.9 3.4 5.1 4.1.8.2 1.5.3 2.3.3 3.8 0 7.2-2.5 8.2-6.2 15.7-54.9 38.8-71.7 39.3-72.1 3.9-2.6 4.9-7.9 2.3-11.8-2.7-4-8-5.1-11.9-2.4zM132.7 93.4c3.9-2.6 5-7.9 2.4-11.8-2.6-3.9-7.9-5-11.8-2.4l-17.8 11.9c-3.9 2.6-4.9 7.9-2.3 11.8s7.9 5 11.8 2.4l17.7-11.9z"></path></svg> 