<?xml version="1.0" encoding="UTF-8"?> <svg xmlns="http://www.w3.org/2000/svg" id="Capa_1" width="436.7" height="359" viewBox="0 0 436.7 359"><style>.st0{fill:#0cf}</style><path class="st0" d="M278.1 300.7c-4-.9-8.1 1.6-9 5.6l-8.7 37.7H16.9l23-99.7h185.5c4.1 0 7.5-3.4 7.5-7.5s-3.4-7.5-7.5-7.5H39.9l-23-99.7h243.5l11.1 48c.9 4 5 6.6 9 5.6 4-.9 6.6-5 5.6-9l-12-52.1 26-113c.5-2.2 0-4.6-1.4-6.4S295.1 0 292.8 0H33.9c-3.5 0-6.5 2.4-7.3 5.8L.2 120.5c-.3 1.1-.3 2.3 0 3.4l26 113-26 113c-.5 2.2 0 4.6 1.4 6.4s3.6 2.8 5.9 2.8h258.9c3.5 0 6.5-2.4 7.3-5.8l10-43.5c.9-4.1-1.6-8.2-5.6-9.1zM39.9 15h243.5l-23 99.7H16.9l23-99.7z"></path><path class="st0" d="M63 54.3h129c4.1 0 7.5-3.4 7.5-7.5s-3.4-7.5-7.5-7.5H63c-4.1 0-7.5 3.4-7.5 7.5s3.4 7.5 7.5 7.5zM49.5 90.3h129c4.1 0 7.5-3.4 7.5-7.5s-3.4-7.5-7.5-7.5h-129c-4.1 0-7.5 3.4-7.5 7.5s3.4 7.5 7.5 7.5zM199.5 276.2c0-4.1-3.4-7.5-7.5-7.5H63c-4.1 0-7.5 3.4-7.5 7.5s3.4 7.5 7.5 7.5h129c4.1 0 7.5-3.4 7.5-7.5zM49.5 304.7c-4.1 0-7.5 3.4-7.5 7.5s3.4 7.5 7.5 7.5h129c4.1 0 7.5-3.4 7.5-7.5s-3.4-7.5-7.5-7.5h-129zM186 161.5c0-4.1-3.4-7.5-7.5-7.5h-129c-4.1 0-7.5 3.4-7.5 7.5s3.4 7.5 7.5 7.5h129c4.1 0 7.5-3.4 7.5-7.5zM63 205h129c4.1 0 7.5-3.4 7.5-7.5s-3.4-7.5-7.5-7.5H63c-4.1 0-7.5 3.4-7.5 7.5s3.4 7.5 7.5 7.5zM216.1 61.5c.5 2.6 2.4 4.8 5 5.6.8.3 1.6.4 2.4.4 1.8 0 3.6-.6 5-1.9L254 43.1c3.1-2.7 3.4-7.5.7-10.6-2.7-3.1-7.5-3.4-10.6-.7l-15.7 13.9-.4-2.2c-.8-4.1-4.8-6.7-8.8-5.9-4.1.8-6.7 4.8-5.9 8.8l2.8 15.1zM223.9 183.9c.4 0 .7 0 1.1-.1 2.7-.4 4.9-2.2 5.9-4.7l12.4-31.7c1.5-3.9-.4-8.2-4.2-9.7-3.9-1.5-8.2.4-9.7 4.2l-7.7 19.5-1.4-1.8c-2.6-3.2-7.3-3.8-10.5-1.2-3.2 2.6-3.8 7.3-1.2 10.5l9.5 12c1.3 2 3.5 3 5.8 3zM224.7 219.7c1.4 1.8 3.6 2.8 5.9 2.8.4 0 .7 0 1.1-.1 2.7-.4 4.9-2.2 5.9-4.7L250 186c1.5-3.9-.4-8.2-4.2-9.7-3.9-1.5-8.2.4-9.7 4.2l-7.7 19.5-1.4-1.8c-2.6-3.2-7.3-3.8-10.5-1.2-3.2 2.6-3.8 7.3-1.2 10.5l9.4 12.2zM434.7 139.8L396.5 99c-1.4-1.5-3.2-2.3-5.2-2.4-2-.1-3.9.7-5.4 2L242.6 233.2c-.9.9-1.6 1.9-2 3.1l-18.1 55.3c-.9 2.6-.2 5.5 1.7 7.5 1.4 1.5 3.4 2.4 5.5 2.4.6 0 1.3-.1 1.9-.2l56.3-14.5c1.2-.3 2.3-.9 3.3-1.8l143.3-134.4c2.9-3 3-7.7.2-10.8zM241 283.2l9.9-30.2 20.9 22.3-30.8 7.9zm45.3-14.4l-28-29.8 132.4-124.2 28 29.8-132.4 124.2z"></path></svg> 