<?xml version="1.0" encoding="utf-8"?>
<!-- Generator: Adobe Illustrator 22.1.0, SVG Export Plug-In . SVG Version: 6.00 Build 0)  -->
<svg version="1.1" id="Capa_1" xmlns="http://www.w3.org/2000/svg" xmlns:xlink="http://www.w3.org/1999/xlink" x="0px" y="0px"
	 width="436.7px" height="359px" viewBox="0 0 436.7 359" style="enable-background:new 0 0 436.7 359;" xml:space="preserve">
<style type="text/css">
	.st0{fill:#66BE55;}
</style>
<path class="st0" d="M278.1,300.7c-4-0.9-8.1,1.6-9,5.6l-8.7,37.7H16.9l23-99.7h185.5c4.1,0,7.5-3.4,7.5-7.5s-3.4-7.5-7.5-7.5H39.9
	l-23-99.7h243.5l11.1,48c0.9,4,5,6.6,9,5.6c4-0.9,6.6-5,5.6-9l-12-52.1l26-113c0.5-2.2,0-4.6-1.4-6.4S295.1,0,292.8,0H33.9
	c-3.5,0-6.5,2.4-7.3,5.8L0.2,120.5c-0.3,1.1-0.3,2.3,0,3.4l26,113l-26,113c-0.5,2.2,0,4.6,1.4,6.4s3.6,2.8,5.9,2.8h258.9
	c3.5,0,6.5-2.4,7.3-5.8l10-43.5C284.6,305.7,282.1,301.6,278.1,300.7L278.1,300.7z M39.9,15h243.5l-23,99.7H16.9L39.9,15z"/>
<path class="st0" d="M63,54.3h129c4.1,0,7.5-3.4,7.5-7.5s-3.4-7.5-7.5-7.5H63c-4.1,0-7.5,3.4-7.5,7.5S58.9,54.3,63,54.3z M49.5,90.3
	h129c4.1,0,7.5-3.4,7.5-7.5s-3.4-7.5-7.5-7.5h-129c-4.1,0-7.5,3.4-7.5,7.5S45.4,90.3,49.5,90.3z M199.5,276.2c0-4.1-3.4-7.5-7.5-7.5
	H63c-4.1,0-7.5,3.4-7.5,7.5s3.4,7.5,7.5,7.5h129C196.1,283.7,199.5,280.3,199.5,276.2z M49.5,304.7c-4.1,0-7.5,3.4-7.5,7.5
	s3.4,7.5,7.5,7.5h129c4.1,0,7.5-3.4,7.5-7.5s-3.4-7.5-7.5-7.5H49.5z M186,161.5c0-4.1-3.4-7.5-7.5-7.5h-129c-4.1,0-7.5,3.4-7.5,7.5
	s3.4,7.5,7.5,7.5h129C182.6,169,186,165.6,186,161.5z M63,205h129c4.1,0,7.5-3.4,7.5-7.5s-3.4-7.5-7.5-7.5H63
	c-4.1,0-7.5,3.4-7.5,7.5S58.9,205,63,205z M216.1,61.5c0.5,2.6,2.4,4.8,5,5.6c0.8,0.3,1.6,0.4,2.4,0.4c1.8,0,3.6-0.6,5-1.9L254,43.1
	c3.1-2.7,3.4-7.5,0.7-10.6s-7.5-3.4-10.6-0.7l-15.7,13.9l-0.4-2.2c-0.8-4.1-4.8-6.7-8.8-5.9c-4.1,0.8-6.7,4.8-5.9,8.8
	C213.3,46.4,216.1,61.5,216.1,61.5z M223.9,183.9c0.4,0,0.7,0,1.1-0.1c2.7-0.4,4.9-2.2,5.9-4.7l12.4-31.7c1.5-3.9-0.4-8.2-4.2-9.7
	c-3.9-1.5-8.2,0.4-9.7,4.2l-7.7,19.5l-1.4-1.8c-2.6-3.2-7.3-3.8-10.5-1.2s-3.8,7.3-1.2,10.5l9.5,12
	C219.4,182.9,221.6,183.9,223.9,183.9L223.9,183.9z M224.7,219.7c1.4,1.8,3.6,2.8,5.9,2.8c0.4,0,0.7,0,1.1-0.1
	c2.7-0.4,4.9-2.2,5.9-4.7L250,186c1.5-3.9-0.4-8.2-4.2-9.7c-3.9-1.5-8.2,0.4-9.7,4.2l-7.7,19.5l-1.4-1.8c-2.6-3.2-7.3-3.8-10.5-1.2
	s-3.8,7.3-1.2,10.5L224.7,219.7L224.7,219.7z M434.7,139.8L396.5,99c-1.4-1.5-3.2-2.3-5.2-2.4s-3.9,0.7-5.4,2L242.6,233.2
	c-0.9,0.9-1.6,1.9-2,3.1l-18.1,55.3c-0.9,2.6-0.2,5.5,1.7,7.5c1.4,1.5,3.4,2.4,5.5,2.4c0.6,0,1.3-0.1,1.9-0.2l56.3-14.5
	c1.2-0.3,2.3-0.9,3.3-1.8l143.3-134.4C437.4,147.6,437.5,142.9,434.7,139.8z M241,283.2l9.9-30.2l20.9,22.3L241,283.2L241,283.2z
	 M286.3,268.8l-28-29.8l132.4-124.2l28,29.8L286.3,268.8z"/>
</svg>
