<?xml version="1.0" encoding="UTF-8"?> <svg xmlns="http://www.w3.org/2000/svg" id="svg2" width="1828.6" height="576.8" viewBox="0 0 1828.6 576.8"><style>.st0{fill:#bcd800}</style><g id="g4"><path id="path6" class="st0" d="M20.5 566C-8.4 554.8-9.7 533 36 542c6.8 1.3 21.6 4.6 31 5.3 9.8-26.8 33.2 4.2 40.3 7.1 8-3.3 26.9-43.1 42.9-12.9 9.4-4.2 12-18.7 44.5-22 31.8-3.3 63.3-47.4 65.2 4.3 0 .9 0 1.1.1 1.5 22.1 7 29.5-31.9 44.9 21.5 4.9 17.1 52.9-23.8 41.6 13.7 15.8 3.2 35.6-14 74.5-5.9 37.4 7.8 53.2-26.6 82.5-6.3 23.3 16.1 46.8-24.1 51.9 10 1.1 7.1 51.5-5.9 63.2-5.2-4.7 1.9-2.3 1.1-7.1 2.4h.1c-27.8 8.1-59.8 25.3-63.3-2-9.2-.5-35.8 12.3-50.2 3.2-26.6-16.7-39.4 21.5-85.9 8.8-17.8-4.9-82.6 25.6-80.8-2.9-43.2 14.2-36.3-5.5-45.2-26.2-31.5 3.9-38.2 19.7-43.5-17.2-11.8 4.6-27.3 17.6-45.9 19.9-28.8 3.6-46 40.5-62.1 16.3-24.1 23.9-21.3 29.9-50.5 7.9-9.1 11.9-33.5 6.4-53.5 1.8-3.1 1.7-6.8 2.1-10.2.9zm86.7-11.6z"></path><path id="path8" class="st0" d="M273.4 460c-42.4 11.8-73.3.8-99.3-38.5-3.7-5.6-3.4-11-.6-14.5-10.9-16.2-28.7-43.5 13.5-35.3-6-23.4-25.5-83 3.7-85.3-23.4-37.5-20.4-65.4 26-87.5-19.7-25.8-16.2-44.6 6.3-73.7-22.8-49.8 24-14.2 33.8-86.2 5.2-38.1 45.5-60 49.1-9.8 3.2 46.1 5.4 45 11.7 85.2 8.1 51.2-23.5 44.8 22.6 57.6 68.9 19 35.9 91.4 62.5 106.8 28.7 16.7 61.2 68 21.8 87.6 13.6 33.3 32.8 57.5-25 73.5 0 0-11.1 2.5-17.2 4.5 38.4 24.1-76.6 53.1-72.7 19.1 8.4 29.2 85.5-1.1 72.6-11.6-38.9-31.6 74.9-1.8 42.1-67.1-25.5-50.8 11.6-9.7 7.3-48-5.5-49.2-43-27.2-53.7-87.3-18.2-101.6-61.3-44.2-76.2-82.1-3-7.5 3.9-35.1-4.3-69.5-5.7-23.7-5.9-65-9.4-79.4-11.8 2.1-12.4 8.1-14.2 22.5-8.2 66.6-46.8 56.6-37.4 71.5 19.3 30.9-33.7 41.4-5.2 74.3 39.3 45.5-72.4 16.5-20.9 92.5 36.6 54.1 1.1 28.5-14.6 28.2-.9 14.9 4.4 27.6 8.5 42.4 12.9 46.7 2.2 46.2-13.6 43.6 4.8 7.1 9.9 16.2 10 22.9 22 23.5 29.9 31.5 65.1 21.2 6.1-2.2 12.8 1 15 7.2 2 6.3-1.2 13-7.3 15.2zm-49.9-333.6zM420.9 368l-.4.2c.2-.1.3-.1.4-.2zm-226.5-60.3c-.1 0 0 0 0 0z"></path></g><path id="path10" class="st0" d="M723.4 363.8c-2.5-6.6-4.8-11.6-6.8-15.2-2.1-3.5-5-7.2-8.7-10.9-10.8-10.8-23.6-16.2-38.5-16.2-8.5 0-16.7 1.9-24.7 5.8-4.2 1.9-7.5 3.9-10.2 5.9-2.6 2.1-5.9 5.2-9.7 9.4h-36c3.2-6.4 5.9-11.3 8.2-14.8 2.3-3.4 5.3-7 8.9-10.6 8.2-8.2 17.9-14.6 29-19.3 11.1-4.6 22.5-6.9 34.2-6.9 15.6 0 30.1 3.9 43.6 11.9 13.5 7.9 24.1 18.7 32 32.2 7.9 13.5 11.8 28.2 11.8 44 0 16-3.9 30.8-11.9 44.5-7.9 13.7-18.6 24.5-32.1 32.5s-28.1 12-43.8 12c-7.6 0-15.2-1-22.7-3s-14.6-4.9-21.3-8.7c-6.7-3.8-12.8-8.4-18.2-13.7-3.7-3.7-6.7-7.3-8.8-10.4-2.2-3.2-4.9-8-8.1-14.5h36.6c4.4 4.4 8 7.6 10.8 9.6 2.8 2 6.4 4 10.7 5.9 6.9 2.9 13.9 4.4 21 4.4 8.3 0 16-1.7 23.2-5.2 7.1-3.4 13.4-8.4 18.8-14.9s9.6-14.3 12.5-23.2h-83.7v-30.5l83.9-.1zm53.7 100.1V294.2h31.4v73.5l52.7-73.5h37.7l-62.1 76.6 62.1 93.1h-37.7l-52.7-84.4v84.4h-31.4zM997.6 291c16.6 0 31.7 3.9 45.5 11.8s24.7 18.6 32.6 32.2c7.9 13.6 11.9 28.5 11.9 44.8 0 15.9-3.9 30.7-11.8 44.2-7.9 13.6-18.7 24.3-32.4 32.2-13.6 7.9-28.4 11.8-44.3 11.8-16 0-30.7-3.9-44.3-11.8-13.6-7.9-24.4-18.6-32.3-32.2-7.9-13.5-11.9-28.3-11.9-44.2 0-15.8 3.9-30.6 11.8-44.2 7.9-13.7 18.5-24.5 31.8-32.5 13.4-8.1 27.9-12.1 43.4-12.1zm2.7 30.5c-10.7 0-20.5 2.5-29.4 7.6-8.9 5.1-15.9 12-21 20.8s-7.7 18.5-7.7 29.2c0 10.4 2.6 20.1 7.7 29.1 5.2 9 12.1 16.2 20.9 21.4 8.7 5.3 18.2 7.9 28.3 7.9 10.1 0 19.6-2.7 28.3-8 8.8-5.3 15.8-12.5 21-21.5 5.2-9 7.8-18.7 7.8-29.1 0-10.2-2.5-19.7-7.6-28.5-5.1-8.9-11.9-15.9-20.6-21.2-8.6-5.1-17.9-7.7-27.7-7.7zm172 22.4l-.7-6-.8 6-37.7 120h-34.8l63.1-169.7h24.6l63.9 169.7h-37.2l-40.4-120zm172.8-52.9c16.6 0 31.7 3.9 45.5 11.8s24.7 18.6 32.6 32.2c7.9 13.6 11.9 28.5 11.9 44.8 0 15.9-3.9 30.7-11.8 44.2-7.9 13.6-18.7 24.3-32.4 32.2-13.6 7.9-28.4 11.8-44.3 11.8-16 0-30.7-3.9-44.3-11.8-13.6-7.9-24.4-18.6-32.3-32.2-7.9-13.5-11.9-28.3-11.9-44.2 0-15.8 3.9-30.6 11.8-44.2 7.9-13.7 18.5-24.5 31.8-32.5 13.4-8.1 27.9-12.1 43.4-12.1zm2.7 30.5c-10.7 0-20.5 2.5-29.4 7.6-8.9 5.1-15.9 12-21 20.8s-7.7 18.5-7.7 29.2c0 10.4 2.6 20.1 7.7 29.1 5.2 9 12.1 16.2 20.9 21.4 8.7 5.3 18.2 7.9 28.3 7.9 10.1 0 19.6-2.7 28.3-8 8.8-5.3 15.8-12.5 21-21.5 5.2-9 7.8-18.7 7.8-29.1 0-10.2-2.5-19.7-7.6-28.5-5.1-8.9-11.9-15.9-20.6-21.2-8.6-5.1-17.9-7.7-27.7-7.7zm112.3 142.4V294.1h86.3v30.5h-54.9v139.3h-31.4zm141.7 0h-31.4V294.2h31.4v124l2.2-5.8 66.3-118.3h31.4v169.7h-31.4V340.3l-2.2 5.1-66.3 118.5zm226.8-169.8v169.8h-31.4v-80.3l-47.4 80.3h-38.9l49.6-77.7c-27-3.1-40.4-17.6-40.4-43.2 0-10.8 2.5-20.1 7.5-27.8 3.3-5.3 7.8-9.6 13.3-12.8 4-2.5 7.7-4.4 11.1-5.5 3.4-1.1 7.7-1.9 13-2.2 5.3-.4 13.2-.5 23.8-.5l39.8-.1zm-31.4 75v-47.8h-9.2c-5.7 0-9.4.1-11.2.2-7.6.3-13.6 2.2-18.1 5.8-4.8 4-7.3 9.8-7.3 17.2 0 7.5 2.4 13.5 7.3 18.1 2.1 1.9 4.9 3.4 8.2 4.6 3.9 1.2 10.9 1.9 21.1 1.9h9.2z"></path><path id="path12" d="M604.2 228.8l36.1-54.5-32.7-50h24.6l20.6 31.1 20.6-31.1H698l-32.8 50 36 54.4h-25.3l-23.1-35.4-23.2 35.4h-25.4v.1zm99.7-51.5c0-10.6 1.6-19.6 4.8-26.8 2.4-5.3 5.6-10.1 9.7-14.3 4.1-4.2 8.6-7.4 13.5-9.4 6.5-2.7 14-4.1 22.5-4.1 15.4 0 27.7 4.8 37 14.3 9.2 9.6 13.9 22.9 13.9 39.9 0 16.9-4.6 30.1-13.8 39.6-9.2 9.6-21.4 14.3-36.8 14.3-15.5 0-27.9-4.7-37.1-14.2-9.1-9.6-13.7-22.7-13.7-39.3zm21.7-.8c0 11.8 2.7 20.8 8.2 26.9 5.5 6.1 12.4 9.2 20.8 9.2s15.3-3 20.8-9.1c5.4-6.1 8.1-15.2 8.1-27.3 0-12-2.6-20.9-7.9-26.8-5.3-5.9-12.2-8.8-21-8.8-8.7 0-15.7 3-21.1 8.9-5.2 6-7.9 15-7.9 27zm96.1 52.3V124.4h33.8c12.8 0 21.1.5 25 1.6 6 1.6 11 5 15 10.2s6.1 12 6.1 20.3c0 6.4-1.2 11.8-3.5 16.2-2.3 4.4-5.3 7.8-8.8 10.3-3.6 2.5-7.2 4.1-10.9 4.9-5 1-12.3 1.5-21.8 1.5h-13.7v39.4h-21.2zm21.2-86.7v29.8h11.5c8.3 0 13.8-.6 16.6-1.7s5-2.8 6.6-5.2c1.6-2.3 2.4-5 2.4-8.1 0-3.8-1.1-7-3.3-9.4-2.2-2.5-5-4-8.5-4.7-2.5-.5-7.5-.7-15.1-.7h-10.2zm69.8 35.2c0-10.6 1.6-19.6 4.8-26.8 2.4-5.3 5.6-10.1 9.7-14.3 4.1-4.2 8.6-7.4 13.5-9.4 6.5-2.7 14-4.1 22.5-4.1 15.4 0 27.7 4.8 37 14.3 9.2 9.6 13.9 22.9 13.9 39.9 0 16.9-4.6 30.1-13.8 39.6-9.2 9.6-21.4 14.3-36.8 14.3-15.5 0-27.9-4.7-37.1-14.2-9.1-9.6-13.7-22.7-13.7-39.3zm21.7-.8c0 11.8 2.7 20.8 8.2 26.9 5.5 6.1 12.4 9.2 20.8 9.2s15.3-3 20.8-9.1c5.4-6.1 8.1-15.2 8.1-27.3 0-12-2.6-20.9-7.9-26.8-5.3-5.9-12.2-8.8-21-8.8-8.7 0-15.7 3-21.1 8.9-5.2 6-7.9 15-7.9 27zm96.4-52.1h21.1v86.8h30v-86.8h21.1v86.8h31.1v-86.8h21l.1 104.5-124.6-.1.2-104.4zm240.4 104.4h-22.8l-9-23.8h-41.9l-8.7 23.8h-22.4l40.5-104.4h22.3l42 104.4zm-38.7-41.4l-14.5-38.7-14.1 38.7h28.6zm112.4 41.4v-43.6h-4.3c-6.7 0-11.4 1-14.1 3-2.7 2-7.4 7.9-14.1 17.8l-15.1 22.8h-25.2l12.7-20.4c5-8.1 9-13.8 12-17 3-3.3 6.7-6.2 11.2-8.7-9.7-1.5-16.7-4.9-21-10.2-4.3-5.3-6.5-11.5-6.5-18.8 0-6.4 1.6-12 4.8-16.9 3.2-4.9 7.4-8.2 12.7-9.9 5.3-1.7 13.1-2.5 23.6-2.5h44.4v104.4h-21.1zm0-86.7h-16.5c-8.4 0-13.9.2-16.5.6-2.6.4-4.9 1.7-6.8 3.9-1.9 2.2-2.8 5-2.8 8.6 0 3.7.9 6.6 2.7 8.8s4.2 3.5 7 4 8.6.8 17.3.8h15.6v-26.7z" fill="#151616"></path><path id="path14" class="st0" d="M285.1 537.5c-7.7-65-8.7-108 .3-173.1 13.1 48.3 12.4 108.3 23.7 166 1.9 6.6-1.9 13.6-8.5 15.5-6.6 2-13.6-1.8-15.5-8.4z"></path></svg> 