<?xml version="1.0" encoding="utf-8"?>
<!-- Generator: Adobe Illustrator 22.1.0, SVG Export Plug-In . SVG Version: 6.00 Build 0)  -->
<svg version="1.1" id="Слой_1" xmlns="http://www.w3.org/2000/svg" xmlns:xlink="http://www.w3.org/1999/xlink" x="0px" y="0px"
	 width="480px" height="480px" viewBox="0 0 480 480" style="enable-background:new 0 0 480 480;" xml:space="preserve">
<style type="text/css">
	.st0{fill:#66BE55;}
</style>
<path class="st0" d="M472,160h-32c-4.4,0-8,3.6-8,8v8H320v-8c0-4.4-3.6-8-8-8h-32c-4.4,0-8,3.6-8,8v8H160v-8c0-4.4-3.6-8-8-8h-32
	c-4.4,0-8,3.6-8,8v56H88c-39.7,0-72,32.3-72,72v104H8c-4.4,0-8,3.6-8,8v64c0,4.4,3.6,8,8,8h464c4.4,0,8-3.6,8-8v-64c0-4.4-3.6-8-8-8
	h-64v-96h24v8c0,4.4,3.6,8,8,8h32c4.4,0,8-3.6,8-8V168C480,163.6,476.4,160,472,160z M344,400h-96v-96h24v8c0,4.4,3.6,8,8,8h32
	c4.4,0,8-3.6,8-8v-8h24V400z M96,400v-88c0-4.4,3.6-8,8-8h8v8c0,4.4,3.6,8,8,8h32c4.4,0,8-3.6,8-8v-8h24v96H96z M232,320h-32v-16h32
	V320z M200,336h32v64h-32V336z M288,176h16v128h-16V176z M272,192v16h-32v16h32v64h-24v-24h-16v24h-72v-96H272z M128,176h16v128h-16
	V176z M32,296c0-30.9,25.1-56,56-56h24v48h-8c-13.3,0-24,10.7-24,24v88H64v-16H48v16H32V296z M16,416h109.8l-12,48H16V416z M464,464
	H130.2l12-48H464V464z M360,400v-64h32v64H360z M392,320h-32v-16h32V320z M408,288v-24h-16v24h-72v-64h64v-16h-64v-16h112v96H408z
	 M464,304h-16V176h16V304z"/>
<path class="st0" d="M160,432h16v16h-16V432z M352,432h48v16h-48V432z M224,432h32v16h-32V432z M296,432h16v16h-16V432z M48,328h16
	v32H48V328z M64,296c0-13.3,10.7-24,24-24h8v-16h-8c-22.1,0-40,17.9-40,40v16h16V296z M32,432h16v16H32V432z M64,432h16v16H64V432z
	 M208,208h16v16h-16V208z M256,72h144c4.4,0,8-3.6,8-8v-8c0.6-8.7-2.6-17.2-8.7-23.3S384.7,23.4,376,24h-2.5
	C366.2,7.9,351.3,0,328,0c-21.8,0-39,9.2-45.7,24H280c-8.5-0.2-16.8,3.1-22.8,9.2S247.8,47.5,248,56v8C248,68.4,251.6,72,256,72z
	 M280,40h8c3.7,0,6.9-2.6,7.8-6.2C298.9,20.7,315.1,16,328,16c23.4,0,29.4,8.8,32.4,18.4c1.1,3.3,4.1,5.6,7.6,5.6h8
	c4.4-0.5,8.8,1,11.9,4.1s4.6,7.5,4.1,11.9H264c-0.2-4.3,1.4-8.5,4.5-11.5C271.5,41.4,275.7,39.8,280,40z M197.5,72
	c-7.3-16.1-22.2-24-45.5-24c-21.8,0-39,9.2-45.7,24H104c-8.5-0.2-16.8,3.1-22.8,9.2S71.8,95.5,72,104v8c0,4.4,3.6,8,8,8h144
	c4.4,0,8-3.6,8-8v-8c0.6-8.7-2.6-17.2-8.7-23.3c-6.1-6.1-14.6-9.3-23.3-8.7H197.5z M216,104H88c-0.2-4.3,1.4-8.5,4.5-11.5
	c3-3,7.2-4.7,11.5-4.5h8c3.7,0,6.9-2.6,7.8-6.2C122.9,68.7,139.1,64,152,64c23.4,0,29.4,8.8,32.4,18.4c1.1,3.3,4.1,5.6,7.6,5.6h8
	c4.4-0.5,8.8,1,11.9,4.1C215,95.2,216.5,99.6,216,104z"/>
</svg>
