<?xml version="1.0" encoding="UTF-8"?> <svg xmlns="http://www.w3.org/2000/svg" id="Слой_1" width="480" height="480" viewBox="0 0 480 480"><style>.st0{fill:#0cf}</style><path class="st0" d="M472 160h-32c-4.4 0-8 3.6-8 8v8H320v-8c0-4.4-3.6-8-8-8h-32c-4.4 0-8 3.6-8 8v8H160v-8c0-4.4-3.6-8-8-8h-32c-4.4 0-8 3.6-8 8v56H88c-39.7 0-72 32.3-72 72v104H8c-4.4 0-8 3.6-8 8v64c0 4.4 3.6 8 8 8h464c4.4 0 8-3.6 8-8v-64c0-4.4-3.6-8-8-8h-64v-96h24v8c0 4.4 3.6 8 8 8h32c4.4 0 8-3.6 8-8V168c0-4.4-3.6-8-8-8zM344 400h-96v-96h24v8c0 4.4 3.6 8 8 8h32c4.4 0 8-3.6 8-8v-8h24v96zm-248 0v-88c0-4.4 3.6-8 8-8h8v8c0 4.4 3.6 8 8 8h32c4.4 0 8-3.6 8-8v-8h24v96H96zm136-80h-32v-16h32v16zm-32 16h32v64h-32v-64zm88-160h16v128h-16V176zm-16 16v16h-32v16h32v64h-24v-24h-16v24h-72v-96h112zm-144-16h16v128h-16V176zM32 296c0-30.9 25.1-56 56-56h24v48h-8c-13.3 0-24 10.7-24 24v88H64v-16H48v16H32V296zM16 416h109.8l-12 48H16v-48zm448 48H130.2l12-48H464v48zm-104-64v-64h32v64h-32zm32-80h-32v-16h32v16zm16-32v-24h-16v24h-72v-64h64v-16h-64v-16h112v96h-24zm56 16h-16V176h16v128z"></path><path class="st0" d="M160 432h16v16h-16v-16zM352 432h48v16h-48v-16zM224 432h32v16h-32v-16zM296 432h16v16h-16v-16zM48 328h16v32H48v-32zM64 296c0-13.3 10.7-24 24-24h8v-16h-8c-22.1 0-40 17.9-40 40v16h16v-16zM32 432h16v16H32v-16zM64 432h16v16H64v-16zM208 208h16v16h-16v-16zM256 72h144c4.4 0 8-3.6 8-8v-8c.6-8.7-2.6-17.2-8.7-23.3-6.1-6.1-14.6-9.3-23.3-8.7h-2.5C366.2 7.9 351.3 0 328 0c-21.8 0-39 9.2-45.7 24H280c-8.5-.2-16.8 3.1-22.8 9.2S247.8 47.5 248 56v8c0 4.4 3.6 8 8 8zm24-32h8c3.7 0 6.9-2.6 7.8-6.2C298.9 20.7 315.1 16 328 16c23.4 0 29.4 8.8 32.4 18.4 1.1 3.3 4.1 5.6 7.6 5.6h8c4.4-.5 8.8 1 11.9 4.1 3.1 3.1 4.6 7.5 4.1 11.9H264c-.2-4.3 1.4-8.5 4.5-11.5 3-3.1 7.2-4.7 11.5-4.5zM197.5 72c-7.3-16.1-22.2-24-45.5-24-21.8 0-39 9.2-45.7 24H104c-8.5-.2-16.8 3.1-22.8 9.2S71.8 95.5 72 104v8c0 4.4 3.6 8 8 8h144c4.4 0 8-3.6 8-8v-8c.6-8.7-2.6-17.2-8.7-23.3-6.1-6.1-14.6-9.3-23.3-8.7h-2.5zm18.5 32H88c-.2-4.3 1.4-8.5 4.5-11.5 3-3 7.2-4.7 11.5-4.5h8c3.7 0 6.9-2.6 7.8-6.2C122.9 68.7 139.1 64 152 64c23.4 0 29.4 8.8 32.4 18.4 1.1 3.3 4.1 5.6 7.6 5.6h8c4.4-.5 8.8 1 11.9 4.1 3.1 3.1 4.6 7.5 4.1 11.9z"></path></svg> 