<?xml version="1.0" encoding="utf-8"?>
<!-- Generator: Adobe Illustrator 22.1.0, SVG Export Plug-In . SVG Version: 6.00 Build 0)  -->
<svg version="1.1" id="Слой_1" xmlns="http://www.w3.org/2000/svg" xmlns:xlink="http://www.w3.org/1999/xlink" x="0px" y="0px"
	 width="411px" height="512px" viewBox="0 0 411 512" style="enable-background:new 0 0 411 512;" xml:space="preserve">
<style type="text/css">
	.st0{fill:#66BE55;}
</style>
<path class="st0" d="M88.9,188.8c-4.2,0-7.6,3.4-7.6,7.6v68.7c0,4.2,3.4,7.6,7.6,7.6h68.7c4.2,0,7.6-3.4,7.6-7.6v-68.7
	c0-4.2-3.4-7.6-7.6-7.6H88.9z M150,257.5H96.4V204H150V257.5z M322.1,191.9H190.9c-4.2,0-7.6,3.4-7.6,7.6c0,4.2,3.4,7.6,7.6,7.6
	h131.3c4.2,0,7.6-3.4,7.6-7.6C329.7,195.3,326.3,191.9,322.1,191.9z M329.7,232.8c0-4.2-3.4-7.6-7.6-7.6H190.9
	c-4.2,0-7.6,3.4-7.6,7.6s3.4,7.6,7.6,7.6h131.3C326.3,240.3,329.7,237,329.7,232.8z M190.9,257.5c-4.2,0-7.6,3.4-7.6,7.6
	s3.4,7.6,7.6,7.6h101c4.2,0,7.6-3.4,7.6-7.6s-3.4-7.6-7.6-7.6H190.9z"/>
<path class="st0" d="M393.3,55.5c9.7,0,17.7-7.9,17.7-17.7V17.7C411,7.9,403.1,0,393.3,0H107.7c-4.2,0-7.6,3.4-7.6,7.6
	s3.4,7.6,7.6,7.6h285.6c1.4,0,2.5,1.1,2.5,2.5v20.2c0,1.4-1.1,2.5-2.5,2.5H17.7c-1.4,0-2.5-1.1-2.5-2.5V17.7c0-1.4,1.1-2.5,2.5-2.5
	h55.1c4.2,0,7.6-3.4,7.6-7.6S77,0,72.8,0H17.7C7.9,0,0,7.9,0,17.7v20.2c0,9.7,7.9,17.7,17.7,17.7h4.5v82c0,4.2,3.4,7.6,7.6,7.6
	s7.6-3.4,7.6-7.6v-82h336.3v240.3H37.4v-123c0-4.2-3.4-7.6-7.6-7.6s-7.6,3.4-7.6,7.6v123h-4.5C8,295.9,0,303.8,0,313.6v20.2
	c0,9.7,7.9,17.7,17.7,17.7h115.6l-67,149.8c-1,2.3-0.8,5.1,0.6,7.2c1.4,2.2,3.8,3.5,6.4,3.5h40.4c3,0,5.7-1.8,6.9-4.5l57.2-128.1
	v125c0,4.2,3.4,7.6,7.6,7.6h40.4c4.2,0,7.6-3.4,7.6-7.6v-125l57.2,128.1c1.2,2.7,3.9,4.5,6.9,4.5h40.4c4.2,0,7.6-3.4,7.6-7.6
	c0-1.3-0.3-2.5-0.9-3.6l-66.7-149.4h57.4c4.2,0,7.6-3.4,7.6-7.6s-3.4-7.6-7.6-7.6H17.7c-1.4,0-2.5-1.1-2.5-2.5v-20.2
	c0-1.4,1.1-2.5,2.5-2.5h375.7c1.4,0,2.5,1.1,2.5,2.5v20.2c0,1.4-1.1,2.5-2.5,2.5h-22.6c-4.2,0-7.6,3.4-7.6,7.6s3.4,7.6,7.6,7.6h22.6
	c9.7,0,17.7-7.9,17.7-17.7v-20.2c0-9.7-7.9-17.7-17.7-17.7h-4.5V55.5H393.3L393.3,55.5z M261.2,351.4l64.9,145.4h-23.8l-64.9-145.4
	H261.2z M218.1,351.4v145.4h-25.2V351.4H218.1z M173.6,351.4l-64.9,145.4H84.9l64.9-145.4H173.6z"/>
<path class="st0" d="M183.8,107.5c-2.2-1.6-5-2-7.5-0.9L60.1,156.1c-3.8,1.6-5.6,6.1-4,9.9c1.2,2.9,4,4.6,7,4.6c1,0,2-0.2,3-0.6
	l112.1-47.8l48,35.8c2.3,1.7,5.2,2,7.8,0.8l94.6-45.1l-5.1,16.9c-1.2,4,1,8.2,5.1,9.4c0.7,0.2,1.5,0.3,2.2,0.3
	c3.3,0,6.3-2.1,7.2-5.4l10.1-33.3c1.2-3.9-0.9-8-4.7-9.3l-31.3-11.1c-3.9-1.4-8.3,0.7-9.7,4.6c-1.4,3.9,0.7,8.3,4.6,9.7l14.1,5
	l-89.5,42.7L183.8,107.5L183.8,107.5z"/>
</svg>
