<?xml version="1.0" encoding="UTF-8"?> <svg xmlns="http://www.w3.org/2000/svg" id="Слой_1" width="411" height="512" viewBox="0 0 411 512"><style>.st0{fill:#0cf}</style><path class="st0" d="M88.9 188.8c-4.2 0-7.6 3.4-7.6 7.6v68.7c0 4.2 3.4 7.6 7.6 7.6h68.7c4.2 0 7.6-3.4 7.6-7.6v-68.7c0-4.2-3.4-7.6-7.6-7.6H88.9zm61.1 68.7H96.4V204H150v53.5zM322.1 191.9H190.9c-4.2 0-7.6 3.4-7.6 7.6 0 4.2 3.4 7.6 7.6 7.6h131.3c4.2 0 7.6-3.4 7.6-7.6-.1-4.2-3.5-7.6-7.7-7.6zM329.7 232.8c0-4.2-3.4-7.6-7.6-7.6H190.9c-4.2 0-7.6 3.4-7.6 7.6s3.4 7.6 7.6 7.6h131.3c4.1-.1 7.5-3.4 7.5-7.6zM190.9 257.5c-4.2 0-7.6 3.4-7.6 7.6 0 4.2 3.4 7.6 7.6 7.6h101c4.2 0 7.6-3.4 7.6-7.6 0-4.2-3.4-7.6-7.6-7.6h-101z"></path><path class="st0" d="M393.3 55.5c9.7 0 17.7-7.9 17.7-17.7V17.7C411 7.9 403.1 0 393.3 0H107.7c-4.2 0-7.6 3.4-7.6 7.6s3.4 7.6 7.6 7.6h285.6c1.4 0 2.5 1.1 2.5 2.5v20.2c0 1.4-1.1 2.5-2.5 2.5H17.7c-1.4 0-2.5-1.1-2.5-2.5V17.7c0-1.4 1.1-2.5 2.5-2.5h55.1c4.2 0 7.6-3.4 7.6-7.6S77 0 72.8 0H17.7C7.9 0 0 7.9 0 17.7v20.2c0 9.7 7.9 17.7 17.7 17.7h4.5v82c0 4.2 3.4 7.6 7.6 7.6 4.2 0 7.6-3.4 7.6-7.6v-82h336.3v240.3H37.4v-123c0-4.2-3.4-7.6-7.6-7.6-4.2 0-7.6 3.4-7.6 7.6v123h-4.5C8 295.9 0 303.8 0 313.6v20.2c0 9.7 7.9 17.7 17.7 17.7h115.6l-67 149.8c-1 2.3-.8 5.1.6 7.2 1.4 2.2 3.8 3.5 6.4 3.5h40.4c3 0 5.7-1.8 6.9-4.5l57.2-128.1v125c0 4.2 3.4 7.6 7.6 7.6h40.4c4.2 0 7.6-3.4 7.6-7.6v-125l57.2 128.1c1.2 2.7 3.9 4.5 6.9 4.5h40.4c4.2 0 7.6-3.4 7.6-7.6 0-1.3-.3-2.5-.9-3.6l-66.7-149.4h57.4c4.2 0 7.6-3.4 7.6-7.6 0-4.2-3.4-7.6-7.6-7.6H17.7c-1.4 0-2.5-1.1-2.5-2.5v-20.2c0-1.4 1.1-2.5 2.5-2.5h375.7c1.4 0 2.5 1.1 2.5 2.5v20.2c0 1.4-1.1 2.5-2.5 2.5h-22.6c-4.2 0-7.6 3.4-7.6 7.6 0 4.2 3.4 7.6 7.6 7.6h22.6c9.7 0 17.7-7.9 17.7-17.7v-20.2c0-9.7-7.9-17.7-17.7-17.7h-4.5V55.5h4.4zM261.2 351.4l64.9 145.4h-23.8l-64.9-145.4h23.8zm-43.1 0v145.4h-25.2V351.4h25.2zm-44.5 0l-64.9 145.4H84.9l64.9-145.4h23.8z"></path><path class="st0" d="M183.8 107.5c-2.2-1.6-5-2-7.5-.9L60.1 156.1c-3.8 1.6-5.6 6.1-4 9.9 1.2 2.9 4 4.6 7 4.6 1 0 2-.2 3-.6l112.1-47.8 48 35.8c2.3 1.7 5.2 2 7.8.8l94.6-45.1-5.1 16.9c-1.2 4 1 8.2 5.1 9.4.7.2 1.5.3 2.2.3 3.3 0 6.3-2.1 7.2-5.4l10.1-33.3c1.2-3.9-.9-8-4.7-9.3l-31.3-11.1c-3.9-1.4-8.3.7-9.7 4.6-1.4 3.9.7 8.3 4.6 9.7l14.1 5-89.5 42.7-47.8-35.7z"></path></svg> 