<svg xmlns="http://www.w3.org/2000/svg" width="496" height="496"><path d="M488 184h-8v-8c0-13.2-10.8-24-24-24h-16c-13.2 0-24 10.8-24 24v8h-8c-4.4 0-8 3.6-8 8v28.1L229.3 352H200c-4.4 0-8 3.6-8 8v24H72c-4.4 0-8 3.6-8 8v24H8c-4.4 0-8 3.6-8 8v64c0 4.4 3.6 8 8 8h240c4.4 0 8-3.6 8-8v-84l144-108c0 4.4 3.6 8 8 8h8v48h-48c-1.8 0-3.6.6-5 1.8l-40 32c-1.9 1.5-3 3.8-3 6.2v40h-40c-4.4 0-8 3.6-8 8v48c0 4.4 3.6 8 8 8h192c4.4 0 8-3.6 8-8V304h8c4.4 0 8-3.6 8-8v-32c0-4.4-3.6-8-8-8h-8v-24h8c4.4 0 8-3.6 8-8v-32c0-4.4-3.6-8-8-8zm-56-8c0-4.4 3.6-8 8-8h16c4.4 0 8 3.6 8 8v8h-32v-8zM208 368h16v16h-16v-16zM16 432h48v48H16v-48zm224 48H80v-80h160v80zm13.2-93.9c-1.4-1.2-3.2-2.1-5.2-2.1h-8v-20.1L410.7 232h5.3v24h-8c-4.4 0-8 3.6-8 8v12L253.2 386.1zM288 448h32v32h-32v-32zm48-8v-44.2l34.8-27.8H416v112h-80v-40zm128 40h-32V304h32v176zm16-192h-64v-16h64v16zm-16-32h-32v-24h32v24zm16-40h-64v-16h64v16zM96 112h3.7c1.3 4.1 2.9 8.2 4.9 12l-6.3 6.3c-3.1 3.1-3.1 8.2 0 11.3l24 24c3 3 8.3 3 11.3 0l6.3-6.3c3.9 2 7.9 3.6 12 4.9v3.7c0 4.4 3.6 8 8 8h32c4.4 0 8-3.6 8-8v-3.7c4.1-1.3 8.2-2.9 12-4.9l6.3 6.3c3.1 3.1 8.2 3.1 11.3 0l24-24c3.1-3.1 3.1-8.2 0-11.3l-6.3-6.3c2-3.9 3.6-7.9 4.9-12h3.7c4.4 0 8-3.6 8-8V72c0-4.4-3.6-8-8-8h-3.7c-1.3-4.1-2.9-8.2-4.9-12l6.3-6.3c3.1-3.1 3.1-8.2 0-11.3l-24-24c-3.1-3.1-8.2-3.1-11.3 0l-6.3 6.3c-3.9-2-7.9-3.6-12-4.9V8c0-4.4-3.6-8-8-8h-32c-4.4 0-8 3.6-8 8v3.7c-4.1 1.3-8.2 2.9-12 4.9l-6.3-6.3C132.2 8.8 130.1 8 128 8s-4.2.8-5.7 2.3l-24 24c-3.1 3.1-3.1 8.2 0 11.3l6.3 6.3c-2 3.9-3.6 7.9-4.9 12H96c-4.4 0-8 3.6-8 8v32c0 4.5 3.6 8.1 8 8.1zm8-32h1.8c3.7 0 7-2.6 7.8-6.2 1.5-6.7 4.1-13.1 7.8-19 1.9-3.2 1.4-7.2-1.2-9.8l-4.9-4.9L128 27.3l4.9 4.9c2.6 2.6 6.7 3.1 9.8 1.2 5.9-3.6 12.3-6.2 19-7.8 3.6-.8 6.2-4.1 6.2-7.8V16h16v1.8c0 3.7 2.6 7 6.2 7.8 6.7 1.5 13.1 4.1 19 7.8 3.2 1.9 7.2 1.5 9.8-1.2l4.9-4.9L236.7 40l-4.9 4.9c-2.6 2.6-3.1 6.7-1.2 9.8 3.6 5.9 6.2 12.3 7.8 19 .8 3.6 4.1 6.2 7.8 6.2h1.8v16h-1.8c-3.7 0-7 2.6-7.8 6.2-1.5 6.7-4.1 13.1-7.8 19-1.9 3.2-1.4 7.2 1.2 9.8l4.9 4.9-12.7 12.9-4.9-4.9c-2.6-2.6-6.7-3.1-9.8-1.2-5.9 3.6-12.3 6.2-19 7.8-3.6.8-6.2 4.1-6.2 7.8v1.8h-16v-1.8c0-3.7-2.6-7-6.2-7.8-6.7-1.5-13.1-4.1-19-7.8-3.1-1.9-7.2-1.4-9.8 1.2l-4.9 4.9-12.9-12.7 4.9-4.9c2.6-2.6 3.1-6.7 1.2-9.8-3.6-5.9-6.2-12.3-7.8-19-.8-3.6-4.1-6.2-7.8-6.2H104V80z"/><path d="M176 136c26.5 0 48-21.5 48-48s-21.5-48-48-48-48 21.5-48 48 21.5 48 48 48zm0-80c17.6 0 32 14.4 32 32s-14.4 32-32 32-32-14.4-32-32 14.4-32 32-32zM8 288h3.7c1.3 4.1 2.9 8.2 4.9 12l-6.3 6.3c-3.1 3.1-3.1 8.2 0 11.3l24 24c3 3 8.3 3 11.3 0l6.3-6.3c3.9 2 7.9 3.6 12 4.9v3.7c0 4.4 3.6 8 8 8h32c4.4 0 8-3.6 8-8v-3.7c4.1-1.3 8.2-2.9 12-4.9l6.3 6.3c3.1 3.1 8.2 3.1 11.3 0l24-24c3.1-3.1 3.1-8.2 0-11.3l-6.3-6.3c2-3.9 3.6-7.9 4.9-12h3.7c4.4 0 8-3.6 8-8v-32c0-4.4-3.6-8-8-8h-3.7c-1.3-4.1-2.9-8.2-4.9-12l6.3-6.3c3.1-3.1 3.1-8.2 0-11.3l-24-24c-3.1-3.1-8.2-3.1-11.3 0l-6.3 6.3c-3.9-2-7.9-3.6-12-4.9V184c0-4.4-3.6-8-8-8H72c-4.4 0-8 3.6-8 8v3.7c-4.1 1.3-8.2 2.9-12 4.9l-6.3-6.3c-1.5-1.5-3.5-2.3-5.7-2.3s-4.2.8-5.7 2.3l-24 24c-3.1 3.1-3.1 8.2 0 11.3l6.3 6.3c-2 3.9-3.6 7.9-4.9 12H8c-4.4 0-8 3.6-8 8v32c0 4.5 3.6 8.1 8 8.1zm8-32h1.8c3.7 0 7-2.6 7.8-6.2 1.5-6.7 4.1-13.1 7.8-19 1.9-3.2 1.4-7.2-1.2-9.8l-4.9-4.9L40 203.3l4.9 4.9c2.6 2.6 6.7 3.1 9.8 1.2 5.9-3.6 12.3-6.2 19-7.8 3.6-.8 6.2-4.1 6.2-7.8V192h16v1.8c0 3.7 2.6 7 6.2 7.8 6.7 1.5 13.1 4.1 19 7.8 3.2 1.9 7.2 1.5 9.8-1.2l4.9-4.9 12.7 12.7-4.9 4.9c-2.6 2.6-3.1 6.7-1.2 9.8 3.6 5.9 6.2 12.3 7.8 19 .8 3.6 4.1 6.2 7.8 6.2h1.8v16H158c-3.7 0-7 2.6-7.8 6.2-1.5 6.7-4.1 13.1-7.8 19-1.9 3.2-1.4 7.2 1.2 9.8l4.9 4.9-12.5 12.9-4.9-4.9c-2.6-2.6-6.7-3.1-9.8-1.2-5.9 3.6-12.3 6.2-19 7.8-3.6.8-6.2 4.1-6.2 7.8v1.8H80v-1.8c0-3.7-2.6-7-6.2-7.8-6.7-1.5-13.1-4.1-19-7.8-3.1-1.9-7.2-1.4-9.8 1.2l-4.9 4.9L27.3 312l4.9-4.9c2.6-2.6 3.1-6.7 1.2-9.8-3.6-5.9-6.2-12.3-7.8-19-.8-3.6-4.1-6.2-7.8-6.2H16V256z"/><path d="M88 312c26.5 0 48-21.5 48-48s-21.5-48-48-48-48 21.5-48 48 21.5 48 48 48zm0-80c17.6 0 32 14.4 32 32s-14.4 32-32 32-32-14.4-32-32 14.4-32 32-32zM384 384h16v16h-16v-16zM384 416h16v16h-16v-16zM384 448h16v16h-16v-16zM96 416h16v16H96v-16zM128 416h16v16h-16v-16zM160 416h16v16h-16v-16zM192 416h16v16h-16v-16zM368 96h80c17.6 0 32-14.4 32-32 0-1.4-.2-2.8-.4-4.2C489.3 54.3 496 44 496 32c0-17.6-14.4-32-32-32-10.8 0-20.3 5.4-26.1 13.6C430.6 5.3 419.9 0 408 0c-19.3 0-35.5 13.8-39.2 32-17.9-.5-32.8 14.1-32.8 32 0 17.6 14.4 32 32 32zm96-80c8.8 0 16 7.2 16 16 0 5.3-2.6 9.9-6.6 12.8-6-8-15.6-13.1-26.2-12.8h.8c0-8.8 7.2-16 16-16zm-96 32c1.7 0 3.5.3 5.4 1 2.5.9 5.3.5 7.5-1.1s3.4-4.1 3.3-6.8c0-.3-.1-.9-.1-1.2 0-13.2 10.8-24 24-24s24 10.8 24 23.7c0 .3-.1 1.2-.1 1.4-.1 2.7 1.1 5.2 3.3 6.8 2.2 1.6 5 2 7.5 1.1 1.9-.7 3.7-1 5.4-1 8.8 0 16 7.2 16 16s-7.2 16-16 16h-80c-8.8 0-16-7.2-16-16S359.2 48 368 48z"/></svg>