<svg xmlns="http://www.w3.org/2000/svg" width="358.4" height="512"><path d="M213.3 0H42.7C19.1 0 0 19.1 0 42.7v307.2c0 23.5 19.1 42.7 42.7 42.7h153.6v-17.1H42.7c-14.1 0-25.6-11.5-25.6-25.6V42.7c0-14.1 11.5-25.6 25.6-25.6h170.7c14.1 0 25.6 11.5 25.6 25.6v247.5h17V42.7C256 19.1 236.9 0 213.3 0z"/><path d="M337.8 227.3l-83.7-104.6-13.3 10.7L324.5 238c10.9 13.6 16.8 30.6 16.8 48v209H216.5c-44.1 0-80-35.9-80-80v-31h-17.1v31c0 53.5 43.5 97 97 97h133.4c4.7 0 8.5-3.8 8.5-8.5V286c.1-21.3-7.2-42.1-20.5-58.7z"/><path d="M145 201.2c6 .2 11.6 2.7 15.7 7l114.7 121.9 12.4-11.7-114.7-121.9c-7.2-7.7-17.1-12.1-27.6-12.4-10.7-.4-20.6 3.5-28.2 10.7-.1.1-.8.7-.9.8-14.6 14.6-15.6 37.6-2.3 53.4l73.5 86.8v26.4c0 47.2 29.6 89.9 73.8 106.5l6-16c-37.5-14.1-62.7-50.4-62.7-90.5v-29.5c0-2-.7-4-2-5.5l-75.5-89.1c-7.6-9-7-22.1 1.7-30.8 4.4-4.1 10.1-6.1 16.1-6.1z"/><path d="M187.7 17.1h17.1v213.3h-17.1zM145.1 281.6h17.1V384h-17.1zM145.1 8.5h17.1v187.7h-17.1zM42.7 42.7h17.1v110.9H42.7zM85.3 42.7h17.1V111H85.3zM102.4 281.6H51.2c-4.7 0-8.5 3.8-8.5 8.5v51.2c0 4.7 3.8 8.5 8.5 8.5h51.2c4.7 0 8.5-3.8 8.5-8.5v-51.2c0-4.7-3.8-8.5-8.5-8.5zm-8.5 51.2H59.7v-34.1h34.1v34.1z"/></svg>