<svg xmlns="http://www.w3.org/2000/svg" width="512" height="512"><path d="M428 0c-46.3 0-84 37.7-84 84s37.7 84 84 84 84-37.7 84-84-37.7-84-84-84zm0 148c-35.3 0-64-28.7-64-64s28.7-64 64-64 64 28.7 64 64-28.7 64-64 64zM316.1 150.9c-1.9-1.9-4.4-2.9-7.1-2.9s-5.2 1.1-7.1 2.9c-1.9 1.9-2.9 4.4-2.9 7.1s1.1 5.2 2.9 7.1c1.9 1.9 4.4 2.9 7.1 2.9s5.2-1.1 7.1-2.9c1.9-1.9 2.9-4.4 2.9-7.1s-1.1-5.2-2.9-7.1z"/><path d="M400 197.2c-5.5 0-10 4.5-10 10V252H138v-84h118c5.5 0 10-4.5 10-10s-4.5-10-10-10H128c-5.5 0-10 4.5-10 10v104c0 5.5 4.5 10 10 10h272c5.5 0 10-4.5 10-10v-54.8c0-5.6-4.5-10-10-10zM400 356H288.2c-5.5 0-10 4.5-10 10s4.5 10 10 10H400c5.5 0 10-4.5 10-10s-4.5-10-10-10zM400 304H288.2c-5.5 0-10 4.5-10 10s4.5 10 10 10H400c5.5 0 10-4.5 10-10s-4.5-10-10-10zM400 408H288.2c-5.5 0-10 4.5-10 10s4.5 10 10 10H400c5.5 0 10-4.5 10-10s-4.5-10-10-10zM239.8 304h-55.9c-5.5 0-10 4.5-10 10s4.5 10 10 10h45.9v84H128c-5.5 0-10 4.5-10 10s4.5 10 10 10h111.8c5.5 0 10-4.5 10-10V314c0-5.5-4.5-10-10-10zM448 201.5c-5.5 0-10 4.5-10 10v86.3c0 5.5 4.5 10 10 10s10-4.5 10-10v-86.3c0-5.5-4.5-10-10-10zM455.1 330.9c-1.9-1.9-4.4-2.9-7.1-2.9s-5.2 1.1-7.1 2.9c-1.9 1.9-2.9 4.4-2.9 7.1s1.1 5.2 2.9 7.1c1.9 1.9 4.4 2.9 7.1 2.9s5.2-1.1 7.1-2.9c1.9-1.9 2.9-4.4 2.9-7.1s-1.1-5.2-2.9-7.1z"/><path d="M448 372.7c-5.5 0-10 4.5-10 10V482c0 5.5-4.5 10-10 10H100c-5.5 0-10-4.5-10-10v-59.1l60.5-47c10.9-8.5 15.9-22.1 13.1-35.6-2.1-10-8.3-18.6-17.1-23.8-8.8-5.1-19.4-6.3-29.1-3.1l-40.5 13.1c-5.3 1.7-8.1 7.3-6.4 12.6 1.7 5.3 7.3 8.1 12.6 6.4l40.5-13.1c4.4-1.4 8.9-.9 12.9 1.4s6.6 6 7.6 10.5c1.2 6-1 12-5.8 15.7l-64.4 50c-2.4 1.9-3.9 4.8-3.9 7.9V485c0 .8.1 1 .3.9 2 14.6 14.5 26 29.7 26h328c16.5 0 30-13.5 30-30v-99.3c0-5.4-4.5-9.9-10-9.9z"/><path d="M304.3 68H100c-16.5 0-30 13.5-30 30v122.3L1.6 324.1c-1.1 1.6-1.6 3.5-1.6 5.5V502c0 5.5 4.5 10 10 10s10-4.5 10-10V332.6l50-75.9v41.1c0 5.5 4.5 10 10 10s10-4.5 10-10V98c0-5.5 4.5-10 10-10h204.3c5.5 0 10-4.5 10-10s-4.4-10-10-10zM465.9 60.8c-3.9-3.9-10.2-3.9-14.1 0L426 86.5l-9.3-9.3c-3.9-3.9-10.2-3.9-14.1 0-3.9 3.9-3.9 10.2 0 14.1l16.4 16.4c2 2 4.5 2.9 7.1 2.9s5.1-1 7.1-2.9L466 74.9c3.8-3.9 3.8-10.2-.1-14.1z"/></svg>