<svg xmlns="http://www.w3.org/2000/svg" width="496" height="496"><path d="M360 376c-22.1 0-40-17.9-40-40 0-8.3 2.6-16.3 7.4-23.1l-13-9.3c-6.8 9.6-10.4 20.8-10.4 32.4 0 30.9 25.1 56 56 56 11.7 0 22.9-3.6 32.4-10.4l-9.3-13c-6.8 4.8-14.8 7.4-23.1 7.4z"/><path d="M424 176v-24c0-17.6-14.4-32-32-32V88h-24V72h16V24h-48v48h16v16h-24v88h-16v-43.7c0-15.7-11.2-29-26.7-31.6L264 97.2V88h-.2c9.8-7.3 16.2-18.9 16.2-32V40c0-22.1-17.9-40-40-40s-40 17.9-40 40v16c0 13.1 6.4 24.7 16.2 32h-.2v9.2l-21.3 3.5c-15.5 2.6-26.7 15.9-26.7 31.6V176h-8v-43.7c0-15.7-11.2-29-26.7-31.6L112 97.2V88h-.2c9.8-7.3 16.2-18.9 16.2-32V40c0-22.1-17.9-40-40-40S48 17.9 48 40v16c0 13.1 6.4 24.7 16.2 32H64v9.2l-21.3 3.5C27.2 103.3 16 116.6 16 132.3V176H0v320h496V176h-72zM352 40h16v16h-16V40zm24 64v16h-32v-16h32zm45.8 195.3c3.5 5.9 6.2 12.3 7.9 19l1.2 4.9 17.1 3.4v18.9l-17.1 3.4-1.2 4.9c-1.7 6.7-4.4 13.1-7.9 19l-2.6 4.3 9.6 14.5-13.4 13.4-14.5-9.6-4.3 2.6c-5.9 3.5-12.3 6.2-19 7.9l-4.9 1.2-3.4 17.1h-18.9l-3.4-17.1-4.9-1.2c-6.7-1.7-13.1-4.4-19-7.9l-4.3-2.6-14.5 9.6-13.4-13.4 9.6-14.5-2.6-4.3c-3.5-5.9-6.2-12.3-7.9-19l-1.2-4.9-17.1-3.4v-18.9l17.1-3.4 1.2-4.9c1.7-6.7 4.4-13.1 7.9-19l2.6-4.3-9.6-14.5 13.4-13.4 14.5 9.6 4.3-2.6c1.5-.9 3.1-1.6 4.7-2.4v42.9l32 42.7 32-42.7V312c5.1 6.8 8 15.2 8 23.9 0 8.3-2.6 16.3-7.4 23.1l13 9.3c6.8-9.6 10.4-20.8 10.4-32.4 0-18.3-9.1-35.4-24-45.8v-18.4c1.6.8 3.2 1.5 4.7 2.4l4.3 2.6 14.5-9.6 13.4 13.4-9.6 14.5 2.7 4.3zM344 296h32v13.3l-16 21.3-16-21.3V296zm32-16h-32V136h32v144zM216 40c0-13.2 10.8-24 24-24s24 10.8 24 24v16c0 13.2-10.8 24-24 24s-24-10.8-24-24V40zm-32 92.3c0-7.9 5.6-14.5 13.4-15.8l34.6-5.8V95.2c2.6.5 5.3.8 8 .8s5.4-.3 8-.8v15.6l34.6 5.8c7.7 1.3 13.4 7.9 13.4 15.8V176H184v-43.7zM64 40c0-13.2 10.8-24 24-24s24 10.8 24 24v16c0 13.2-10.8 24-24 24S64 69.2 64 56V40zm-32 92.3c0-7.9 5.6-14.5 13.4-15.8l34.6-5.8V95.2c2.6.5 5.3.8 8 .8s5.4-.3 8-.8v15.6l34.6 5.8c7.7 1.3 13.4 7.9 13.4 15.8V176H32v-43.7zM480 480H16V192h312v62.2c-2.9 1.1-5.7 2.4-8.5 3.8l-17.1-11.4-31.9 31.9 11.4 17.1c-2.3 4.4-4.2 9.1-5.7 13.8l-20.2 4.1v45.1l20.2 4.1c1.5 4.8 3.4 9.4 5.7 13.8l-11.4 17.1 31.9 31.9 17.1-11.4c4.4 2.3 9.1 4.2 13.8 5.7l4.1 20.2h45.1l4.1-20.2c4.8-1.5 9.4-3.4 13.8-5.7l17.1 11.4 31.9-31.9-11.4-17.1c2.3-4.4 4.2-9.1 5.7-13.8l20.2-4.1v-45.1l-20.2-4.1c-1.5-4.8-3.4-9.4-5.7-13.8l11.4-17.1-31.9-31.9-17.1 11.4c-2.7-1.4-5.6-2.7-8.5-3.8V136c8.8 0 16 7.2 16 16v56c0 13.2 10.8 24 24 24h16v-16h-16c-4.4 0-8-3.6-8-8v-16h56v288z"/><path d="M240 216h16v16h-16v-16zM208 216h16v16h-16v-16zM176 216h16v16h-16v-16zM192.5 328.9L213 288h43v-16h-52.9l-11.5 23.1-27-47.1H32v16h123.4l37.1 64.9z"/><path d="M32 280h120v16H32v-16zM32 312h120v16H32v-16zM216 408h-16v40h-16v-64h-16v64h-16V344h-16v104h-16v-64h-16v64H88v-40H72v40H56v16h176v-16h-16v-40zM448 448h16v16h-16v-16zM416 448h16v16h-16v-16zM384 448h16v16h-16v-16z"/></svg>