<svg xmlns="http://www.w3.org/2000/svg" width="480" height="480"><path d="M479.1 113.8c-1.7-6.1-5.7-11.4-11.2-14.6-5.5-3.2-12.1-4.1-18.2-2.4-6.1 1.7-11.4 5.7-14.6 11.2l-4 7c-3.8-2.2-8.7-.9-10.9 2.9l-20.3 34.6-7-4c-1.8-1.1-4-1.4-6.1-.8-2.1.6-3.8 1.9-4.9 3.8-2.2 3.8-.8 8.7 3 10.9l7 4-68 117.8-16.8 44.9-8 15c-4.7 8.1-4.2 18.3 1.3 25.9l-18 22.1-5-12.6c-2.3-5.6-7.5-9.5-13.6-10s-11.9 2.5-15 7.7L246 382l-2.7-32c-.6-7.6-6.5-13.7-14-14.6-7.5-.9-14.7 3.6-17.1 10.8l-19.7 59c-1.4 4.2.9 8.7 5 10.1.8.4 1.6.6 2.5.6 3.4 0 6.5-2.2 7.6-5.4l19.6-59L230 384c.6 6.9 5.6 12.7 12.3 14.3 6.8 1.6 13.8-1.4 17.3-7.4l3-4.9 5 12.6c2.1 5.3 6.9 9.1 12.5 9.9 5.6.8 11.3-1.4 14.9-5.8l18.6-23.6c2.1.5 4.2.8 6.3.8 8.6.1 16.5-4.4 20.9-11.8l8-13.4 30.5-37L448 198.4l7 4c1.9 1.1 3.2 2.8 3.8 4.9.6 2.1.3 4.2-.8 6.1l-32 55.4c-1.2 1.8-1.6 4.1-1.1 6.2.5 2.1 1.8 4 3.7 5.1 1.8 1.1 4 1.4 6.1.8 2.1-.6 3.8-1.9 4.9-3.8l32-55.4c3.2-5.5 4.1-12.1 2.4-18.2-1.7-6.1-5.7-11.4-11.2-14.6l-7-4 20-34.6c2.2-3.8.9-8.7-2.9-10.9l4-7c3.1-5.6 4-12.3 2.2-18.6zm-30.1 2.3c1.1-1.9 2.8-3.2 4.9-3.8 2.1-.5 4.2-.2 6.1.8 1.9 1.1 3.2 2.8 3.8 4.9.5 2.1.2 4.2-.8 6.1l-4 7-13.9-8 3.9-7zM339.9 339.4l-4-2.3-11.8-6.9 11.4-30.4 25.2 14.6-20.8 25zm-24 23.1c-3.4-2.4-4.4-6.9-2.4-10.5l4-7 13.9 8-4 6.9c-1.1 1.9-3 3.3-5.2 3.8-2.1.5-4.4.1-6.3-1.2zm53.9-61.3l-27.7-16 64-110.9 27.7 16-64 110.9zm72-124.7l-27.7-16 16-27.7 27.7 16-16 27.7zM126.2 358.5l-28.3 28.2-17-17c-3.1-3.1-8.2-3.1-11.3 0-1.5 1.5-2.4 3.5-2.4 5.7s.9 4.2 2.4 5.7l17 17c3 3 7.1 4.6 11.3 4.6 4.2 0 8.3-1.6 11.4-4.6l28.2-28.3c2.7-3.2 2.5-7.9-.4-10.9-3-2.9-7.7-3.1-10.9-.4z"/><path d="M32 380c0 37.6 30.4 68 68 68s68-30.4 68-68c0-4.4-3.6-8-8-8s-8 3.6-8 8c0 28.7-23.3 52-52 52s-52-23.3-52-52 23.3-52 52-52c11.3 0 22.2 3.6 31.2 10.4 3.5 2.7 8.5 1.9 11.2-1.6 2.7-3.5 1.9-8.5-1.6-11.2-20.6-15.5-48.2-17.9-71.2-6.4C46.5 330.7 32 354.3 32 380zM288 64.1c4.4 0 8-3.6 8-8s-3.6-8-8-8H80c-4.4 0-8 3.6-8 8v32c0 4.4 3.6 8 8 8h208c4.4 0 8-3.6 8-8s-3.6-8-8-8H88v-16h200zM104 112.1c-4.4 0-8 3.6-8 8s3.6 8 8 8h160c4.4 0 8-3.6 8-8s-3.6-8-8-8H104zM311.9 168.1H136c-4.4 0-8 3.6-8 8s3.6 8 8 8h176c4.4 0 8-3.6 8-8-.1-4.5-3.6-8-8.1-8zM232 224c0-4.4-3.6-8-8-8H64c-4.4 0-8 3.6-8 8s3.6 8 8 8h160c4.4 0 8-3.5 8-8zM311.9 216h-56c-4.4 0-8 3.6-8 8s3.6 8 8 8h56c4.4 0 8-3.6 8-8s-3.5-8-8-8zM144 272c4.4 0 8-3.6 8-8s-3.6-8-8-8H64c-4.4 0-8 3.6-8 8s3.6 8 8 8h80zM176 272h56c4.4 0 8-3.6 8-8s-3.6-8-8-8h-56c-4.4 0-8 3.6-8 8 0 4.5 3.6 8 8 8z"/><path d="M359.9 368c-4.4 0-8 3.6-8 8v80c0 4.4-3.6 8-8 8H24c-4.4 0-8-3.6-8-8V24.1c0-4.4 3.6-8 8-8h319.9c4.4 0 8 3.6 8 8v150.2c0 4.4 3.6 8 8 8s8-3.6 8-8V24.1c0-13.3-10.7-24-24-24H24C10.7.1 0 10.8 0 24.1V456c0 13.3 10.7 24 24 24h319.9c13.3 0 24-10.7 24-24v-80c0-4.4-3.5-8-8-8z"/></svg>