<svg xmlns="http://www.w3.org/2000/svg" width="512" height="512"><path d="M152.8 163.9c-6.3 0-12.4 1.7-17.7 4.9-5.2-3.1-11.2-4.9-17.7-4.9-18.9 0-34.3 15.4-34.3 34.3s15.4 34.3 34.3 34.3c6.5 0 12.5-1.8 17.7-4.9 5.3 3.2 11.4 4.9 17.7 4.9 18.9 0 34.3-15.4 34.3-34.3s-15.4-34.3-34.3-34.3zm-35.4 53.7c-10.7 0-19.3-8.7-19.3-19.3s8.7-19.3 19.3-19.3 19.3 8.7 19.3 19.3-8.7 19.3-19.3 19.3zm35.4 0c-2.2 0-4.3-.4-6.3-1.1 3.3-5.3 5.3-11.5 5.3-18.3s-1.9-13-5.3-18.3c2-.7 4.2-1.1 6.3-1.1 10.7 0 19.3 8.7 19.3 19.3 0 10.8-8.7 19.5-19.3 19.5zM406.9 325.2h-72.7c-4.1 0-7.5 3.4-7.5 7.5s3.4 7.5 7.5 7.5h72.7c4.1 0 7.5-3.4 7.5-7.5 0-4.2-3.3-7.5-7.5-7.5zM310.8 325.2h-14.4c-4.1 0-7.5 3.4-7.5 7.5s3.4 7.5 7.5 7.5h14.4c4.1 0 7.5-3.4 7.5-7.5s-3.3-7.5-7.5-7.5zM104.3 325.2H89.8c-4.1 0-7.5 3.4-7.5 7.5s3.4 7.5 7.5 7.5h14.4c4.1 0 7.5-3.4 7.5-7.5.1-4.2-3.3-7.5-7.4-7.5z"/><path d="M437 75c-10.3-10.3-21.4-19.7-33.2-28-3.4-2.4-8.1-1.6-10.5 1.8-2.4 3.4-1.6 8.1 1.8 10.5 11.1 7.9 21.6 16.7 31.3 26.4 45.5 45.5 70.6 106 70.6 170.4S471.9 381 426.4 426.5C380.9 471.9 320.4 497 256 497s-124.9-25.1-170.4-70.6c-3.3-3.3-6.6-6.8-9.7-10.3-.3-.8-.8-1.6-1.4-2.3-2.8-3.1-7.5-3.3-10.6-.5l-.6.6c-2.8 2.8-2.9 7.3-.3 10.2 3.9 4.5 8 8.8 12.1 13 48.4 48.3 112.6 75 181 75s132.7-26.6 181-75c48.3-48.4 75-112.6 75-181S485.4 123.3 437 75z"/><path d="M385.8 98.7c-.1-2.1-1.2-4.1-2.9-5.5-36.6-28.6-80.5-43.8-127-43.8-32.8 0-64.2 7.5-93.3 22.3-27.7 14.1-52.4 34.7-71.2 59.6C64 167.5 49.5 210.6 49.5 256c0 45.4 14.5 88.5 41.9 124.6l1.8 2.4c1.3 1.7 3.3 2.7 5.4 2.9h.4c2 0 3.9-.8 5.3-2.2l2.3-2.3 276.9-276.9c1.7-1.5 2.5-3.6 2.3-5.8zM199.7 267.2H98v-10h111.7l-10 10zm25-25H90.5c-4.1 0-7.5 3.4-7.5 7.5v25c0 4.1 3.4 7.5 7.5 7.5h94.2l-17.1 17.1H89.4c-4.1 0-7.5 3.4-7.5 7.5s3.4 7.5 7.5 7.5h63.2L100 366.9C76.8 334.4 64.5 296.2 64.5 256c0-40.8 12.7-79.7 36.7-112.6h222.3l-98.8 98.8zm113.8-113.8H113.3c36.4-40.8 87.5-63.9 142.7-63.9 40.2 0 78.4 12.2 110.9 35.5l-28.4 28.4zM420.5 131.4l-1.8-2.4c-1.3-1.7-3.3-2.7-5.4-2.9-2.1-.1-4.2.7-5.8 2.2l-2.3 2.3-276.9 276.9c-1.5 1.5-2.3 3.6-2.2 5.8.1 2.1 1.2 4.1 2.9 5.5 36.6 28.6 80.5 43.8 127 43.8 68.9 0 133-34.2 171.5-91.6.1-.1.1-.2.2-.3 22.7-34 34.8-73.6 34.8-114.6 0-45.5-14.5-88.6-42-124.7zm-68.7 87.8c0-1.8 1.5-3.3 3.3-3.3h30.6v6.9h-33.9v-3.6zm0 18.6h33.9v4.4h-33.9v-4.4zm0 19.4h33.9v5.3H355c-1.8 0-3.3-1.5-3.3-3.3v-2zm-51.9 0h6.1v10h-16.1l10-10zm116.4 103.4c-10.3 5.2-21.9 8-33.6 8H267.3c-4.1 0-7.5 3.4-7.5 7.5s3.4 7.5 7.5 7.5h115.3c5.9 0 11.8-.6 17.5-1.7-36.2 41.5-88.5 65.6-144.2 65.6-40.2 0-78.4-12.2-110.9-35.5l28.4-28.4h63.8c4.1 0 7.5-3.4 7.5-7.5s-3.4-7.5-7.5-7.5h-48.8l54.3-54.3h164.2c4.1 0 7.5-3.4 7.5-7.5s-3.4-7.5-7.5-7.5H257.7l17.1-17.1h38.6c4.1 0 7.5-3.4 7.5-7.5v-25c0-3.7-2.7-6.8-6.3-7.4l22-22v38.9c0 10.1 8.2 18.3 18.3 18.3h54.9c10.1 0 18.3-8.2 18.3-18.3v-40c0-10.1-8.2-18.3-18.3-18.3H356l55.8-55.8c23.2 32.5 35.5 70.8 35.5 110.9.2 37.3-10.6 73.5-31 104.6zm-15.7-98.1v-46.6h9.3c1.8 0 3.3 1.5 3.3 3.3v40c0 1.8-1.5 3.3-3.3 3.3h-9.3z"/><path d="M376.9 30.2C340.1 10.4 298.3 0 256 0 187.6 0 123.3 26.6 75 75 26.6 123.3 0 187.6 0 256c0 51.7 15.3 101.4 44.1 143.8 1.5 2.1 3.8 3.3 6.2 3.3 1.5 0 2.9-.4 4.2-1.3 3.4-2.3 4.3-7 2-10.4C29.4 351.5 15 304.7 15 256c0-64.4 25.1-124.9 70.6-170.4C131.1 40.1 191.6 15 256 15c39.8 0 79.2 9.8 113.8 28.4 3.6 2 8.2.6 10.2-3.1 1.9-3.6.5-8.1-3.1-10.1z"/></svg>