<svg xmlns="http://www.w3.org/2000/svg" width="417.3" height="470"><path d="M334.5 384.3c1.7-1.4 2.8-3.5 2.8-5.8v-341c0-4.1-3.4-7.5-7.5-7.5h-217C107.4 12.6 91.2 0 72.1 0 53.4 0 36.9 12.5 31.5 30h-24C3.4 30 0 33.4 0 37.5v425c0 4.1 3.4 7.5 7.5 7.5h238.2c2.4 0 4.5-1.1 5.9-2.8l82.9-82.9zm-81.2 60V386h58.3l-58.3 58.3zM72.1 15c10.7 0 19.9 6.1 24.5 15h-49c4.7-8.9 14-15 24.5-15zM15 45h84.6v52.5c0 6.9-5.6 12.5-12.5 12.5s-12.5-5.6-12.5-12.5v-30c0-4.1-3.4-7.5-7.5-7.5s-7.5 3.4-7.5 7.5v30c0 15.2 12.3 27.5 27.5 27.5s27.5-12.3 27.5-27.5V45h207.6v326h-76.5c-4.1 0-7.5 3.4-7.5 7.5V455H15V45z"/><path d="M269.8 345.5c4.1 0 7.5-3.4 7.5-7.5s-3.4-7.5-7.5-7.5H67.5c-4.1 0-7.5 3.4-7.5 7.5s3.4 7.5 7.5 7.5h202.3zM67.5 300.5h202.3c4.1 0 7.5-3.4 7.5-7.5s-3.4-7.5-7.5-7.5H67.5c-4.1 0-7.5 3.4-7.5 7.5s3.4 7.5 7.5 7.5zM67.5 255.5h202.3c4.1 0 7.5-3.4 7.5-7.5s-3.4-7.5-7.5-7.5H67.5c-4.1 0-7.5 3.4-7.5 7.5s3.4 7.5 7.5 7.5zM67.5 210.5h202.3c4.1 0 7.5-3.4 7.5-7.5s-3.4-7.5-7.5-7.5H67.5c-4.1 0-7.5 3.4-7.5 7.5s3.4 7.5 7.5 7.5zM67.5 165.5h202.3c4.1 0 7.5-3.4 7.5-7.5s-3.4-7.5-7.5-7.5H67.5c-4.1 0-7.5 3.4-7.5 7.5s3.4 7.5 7.5 7.5zM369.8 30h-10c-4.1 0-7.5 3.4-7.5 7.5s3.4 7.5 7.5 7.5h2.5v410h-80.1c-4.1 0-7.5 3.4-7.5 7.5s3.4 7.5 7.5 7.5h87.6c4.1 0 7.5-3.4 7.5-7.5v-425c0-4.1-3.4-7.5-7.5-7.5zM409.8 30h-10c-4.1 0-7.5 3.4-7.5 7.5s3.4 7.5 7.5 7.5h2.5v410h-2.5c-4.1 0-7.5 3.4-7.5 7.5s3.4 7.5 7.5 7.5h10c4.1 0 7.5-3.4 7.5-7.5v-425c0-4.1-3.4-7.5-7.5-7.5z"/></svg>