<svg xmlns="http://www.w3.org/2000/svg" width="512" height="512"><path d="M512 174.4c0-7.8-2.3-15.7-7.4-22.2L464 100.3c-6.8-8.6-17.1-13-27.5-13-6.1 0-12.4 1.6-17.9 5L379 116.9c-4.2 2.7-11.3 4.5-18.2 4.4-5.4 0-10.5-1-13.9-2.7l-38.7-18.8c-6.2-3-13.2-4.2-20.2-4.3-10.1 0-20.2 2.5-28.4 8.2l-4.5 3.2c-3.6-1.8-9.1-4.6-15.4-7.7-7.5-3.7-16.3-5.2-25.2-5.2-8 0-16.1 1.3-23.2 4.2l-26.4 11.3c-4.3 1.9-11.1 3.1-17.9 3-6.8 0-13.6-1.2-17.9-3l-26.4-11.3c-4.8-2.1-10-2.9-15.1-2.9-5.9 0-11.7 1.2-17.1 3.4-5.4 2.2-10.5 5.5-14.5 10L8 162.6c-5.3 6-8 13.4-8 20.8 0 8.8 3.8 17.6 11 23.8l44.8 38.3-21.3 22.2c-5.9 6.1-8.8 14.1-8.8 21.9 0 8.3 3.3 16.8 9.9 23l4.3 4.1c4.1 3.9 9 6.3 14.1 7.6-2.6 4.7-4 9.9-4 15.1 0 8.4 3.3 16.8 9.9 23l4.3 4.1c6.2 5.8 14.2 8.8 22 8.7 4.2 0 8.5-.8 12.4-2.5 1.4 5.7 4.3 11.1 8.8 15.4l4.3 4.1c6.2 5.8 14.1 8.8 22 8.7 6.2 0 12.4-1.8 17.7-5.3 1.6 5 4.2 9.8 8.3 13.6l4.3 4.1c6.1 5.8 14.1 8.8 22 8.7 8.4 0 16.8-3.3 23.1-9.8l18.8-19.6 25.5 23.6c6.1 5.7 14 8.5 21.7 8.5 8.5 0 17.1-3.4 23.4-10.1l4.1-4.4c3.5-3.8 5.8-8.3 7.2-12.9l9.9 9.1c6.1 5.6 14 8.5 21.7 8.5 8.5 0 17.1-3.4 23.4-10.1l4.1-4.4c4.7-5 7.3-11.2 8.1-17.5 2.6.7 5.3 1.1 7.9 1.1 8.5 0 17.1-3.4 23.4-10.1l4.1-4.4c5.7-6.1 8.5-13.9 8.5-21.6 0-2.4-.3-4.8-.9-7.1 7.1-.9 13.9-4.1 19.1-9.7l4.1-4.4c5.7-6.1 8.5-13.9 8.5-21.6 0-8.5-3.4-17-10.2-23.3l-7.6-7 68.8-76.1c6.4-6.8 9.3-15.6 9.3-24.3zM62 308.1c-3.6 0-7.2-1.3-10-4l-4.3-4.1c-3-2.8-4.5-6.6-4.5-10.5 0-3.6 1.3-7.2 4-9.9l43.6-45.5c2.8-3 6.6-4.4 10.5-4.4 3.6 0 7.2 1.3 10 4l4.3 4.1s4.5 6.6 4.5 10.5c0 2.9-.9 5.7-2.6 8.2-.1.1-47 49-47 49-2.5 1.6-5.5 2.6-8.5 2.6zm34.8 45.3c-2.8 3-6.6 4.4-10.5 4.4-3.6 0-7.2-1.3-10-4l-4.3-4.1c-3-2.8-4.5-6.6-4.5-10.5 0-3.6 1.3-7.2 4-9.9 0 0 58.1-60.5 58.6-61 2.8-2.7 6.4-4 10-4.1 3.6 0 7.2 1.3 10 4l4.3 4.1c3 2.8 4.5 6.6 4.5 10.5 0 3.6-1.3 7.2-4 10l-58.1 60.6zm47.6 25.7c-2.8 3-6.6 4.4-10.5 4.4-3.6 0-7.2-1.3-10-4l-4.3-4.1c-3-2.8-4.5-6.6-4.5-10.5 0-3.2 1.1-6.4 3.2-9l40.5-42.2c2.7-2.5 6.1-3.8 9.7-3.8 3.6 0 7.2 1.3 10 4l4.3 4.1c3 2.8 4.5 6.6 4.5 10.4 0 3.6-1.3 7.2-4 10l-38.9 40.7zm76.9-4.4l-24.5 25.6c-2.8 3-6.6 4.4-10.5 4.4-3.6 0-7.2-1.3-10-4l-4.3-4.1c-3-2.8-4.5-6.6-4.5-10.5 0-3.6 1.3-7.2 4-9.9l24.5-25.6c2.8-3 6.6-4.4 10.5-4.4 3.6 0 7.2 1.3 10 4l4.3 4.1c3 2.8 4.4 6.6 4.5 10.4 0 3.7-1.4 7.2-4 10zm213.2-69.5c0 3.6-1.3 7-3.9 9.8l-4.1 4.4c-2.8 3-6.7 4.6-10.6 4.6-3.6 0-7.1-1.3-9.9-3.8l-68.5-63.4-11.9 12.7 73.4 68c3.1 2.8 4.6 6.7 4.6 10.6 0 3.6-1.3 7.1-3.9 9.8l-4.1 4.4c-2.8 3-6.7 4.6-10.6 4.6-3.6 0-7.1-1.3-9.9-3.8l-68.6-63.4-11.8 12.7 60.8 56.3c2.9 2.8 4.4 6.6 4.4 10.4 0 3.6-1.3 7-3.8 9.8l-4.1 4.4c-2.8 3-6.7 4.6-10.6 4.6-3.6 0-7.1-1.3-9.9-3.8L271 337.7l-11.8 12.7.2.2 30.4 28.1c2.7 2.8 4.1 6.3 4.1 10 0 3.5-1.3 7-3.8 9.8l-4.1 4.4c-2.8 3-6.7 4.6-10.6 4.6-3.6 0-7.1-1.3-9.9-3.8L239 379.2c2.3-4.5 3.6-9.4 3.6-14.3 0-8.3-3.3-16.8-9.9-23l-4.3-4.1c-6.1-5.8-14.1-8.8-22-8.7-.6 0-1.2.1-1.8.2v-.4c0-8.3-9.9-23-9.9-23l-4.3-4.1c-4.6-4.4-10.2-7.1-16.1-8.2 1.2-3.4 1.9-7 1.9-10.5 0-8.3-3.3-16.8-9.9-23L162 256c-6.2-5.8-14.1-8.8-22-8.8-.9 0-1.8.2-2.7.3-.3-8-3.5-16-9.8-22l-4.3-4.1c-6.2-5.8-14.1-8.8-22-8.8-8.4 0-16.8 3.3-23.1 9.8l-10.3 10.7-45.6-38.9c-3.3-2.8-4.9-6.7-4.9-10.7 0-3.3 1.1-6.6 3.6-9.3L69 120.4c1.9-2.1 4.7-4.1 8-5.4 3.3-1.3 7.1-2.1 10.6-2.1 3.1 0 5.9.6 8.2 1.5l26.4 11.3c7.4 3.1 16.1 4.4 24.8 4.5 8.7 0 17.3-1.3 24.8-4.4l26.4-11.3c4.1-1.8 10.2-2.9 16.3-2.9 6.7 0 13.5 1.4 17.4 3.4 2.5 1.2 4.9 2.4 7 3.5L212 137.4c-8.6 6.1-13.3 15.7-13.3 25.5 0 6.5 2 13 6.2 18.6l3.6 4.8c6.7 9 17.3 13.6 27.8 13.6 5.9 0 12-1.5 17.4-4.7l16.1-9.7c3.3-2 8.2-3.3 13.4-3.3 6 0 12.1 1.7 15.7 4.4l44.5 31.9c9.9 7.1 26 20.3 35 28.5l51.5 47.6c3.1 2.8 4.6 6.7 4.6 10.6zM490 187.1L421.4 263l-31.2-28.8c-9.8-9-25.9-22.2-36.7-29.9L309 172.4c-7.5-5.3-16.8-7.7-25.9-7.7-7.8 0-15.6 1.7-22.4 5.7l-16.1 9.7c-2.5 1.5-5.4 2.2-8.4 2.2-5.4 0-10.8-2.5-13.8-6.6l-3.5-4.8c-1.9-2.5-2.8-5.4-2.8-8.3 0-4.4 2-8.6 5.9-11.4l47.6-33.4c4.1-3 11.4-5.1 18.4-5 4.8 0 9.4.9 12.6 2.5l38.7 18.8c6.6 3.2 14.1 4.5 21.6 4.5 9.6 0 19.4-2.1 27.4-7.1l39.6-24.6c2.5-1.6 5.6-2.4 8.7-2.4 5.3 0 10.7 2.4 13.7 6.4l40.6 51.9c2.3 3 3.7 7.2 3.7 11.5 0 4.9-1.7 9.7-4.6 12.8z"/></svg>