<svg xmlns="http://www.w3.org/2000/svg" width="512" height="512"><path d="M51.2 93.9h51.2c4.7 0 8.5-3.8 8.5-8.5s-3.8-8.5-8.5-8.5H51.2c-4.7 0-8.5 3.8-8.5 8.5s3.8 8.5 8.5 8.5zM145.1 93.9h76.8c4.7 0 8.5-3.8 8.5-8.5s-3.8-8.5-8.5-8.5h-76.8c-4.7 0-8.5 3.8-8.5 8.5s3.8 8.5 8.5 8.5zM51.2 187.7h273.1c4.7 0 8.5-3.8 8.5-8.5s-3.8-8.5-8.5-8.5H51.2c-4.7 0-8.5 3.8-8.5 8.5s3.8 8.5 8.5 8.5zM51.2 221.9h119.5c4.7 0 8.5-3.8 8.5-8.5s-3.8-8.5-8.5-8.5H51.2c-4.7 0-8.5 3.8-8.5 8.5s3.8 8.5 8.5 8.5zM51.2 290.1h119.5c4.7 0 8.5-3.8 8.5-8.5s-3.8-8.5-8.5-8.5H51.2c-4.7 0-8.5 3.8-8.5 8.5s3.8 8.5 8.5 8.5zM51.2 358.4h119.5c4.7 0 8.5-3.8 8.5-8.5s-3.8-8.5-8.5-8.5H51.2c-4.7 0-8.5 3.8-8.5 8.5s3.8 8.5 8.5 8.5zM51.2 426.7h119.5c4.7 0 8.5-3.8 8.5-8.5s-3.8-8.5-8.5-8.5H51.2c-4.7 0-8.5 3.8-8.5 8.5s3.8 8.5 8.5 8.5z"/><path d="M506.9 248.6l-97.3-42v-181C409.6 11.5 398.1 0 384 0H59.7C45.6 0 34.1 11.5 34.1 25.6v8.5h-8.5C11.5 34.1 0 45.6 0 59.7v426.7C0 500.5 11.5 512 25.6 512h324.3c6.9 0 13.5-2.8 18.3-7.8l7 5c5.3 3.8 12.4 3.8 17.7 0l82.6-58.8c22.9-16.2 36.5-42.5 36.6-70.6V256.4c-.1-3.4-2.1-6.5-5.2-7.8zM51.2 25.6c0-4.7 3.8-8.5 8.5-8.5H384c4.7 0 8.5 3.8 8.5 8.5v173.6l-5.1-2.2a8.9 8.9 0 0 0-6.8 0l-5.1 2.2v-54.1c0-.2-.1-.4-.1-.6 0-.7-.2-1.4-.4-2.1-.1-.2-.1-.4-.1-.6-.1-.2-.1-.2-.2-.3-.4-.9-1-1.8-1.7-2.5L270.6 36.6c-.7-.7-1.6-1.3-2.5-1.7-.1-.1-.2-.1-.3-.2-.1 0-.4-.1-.6-.1-.7-.2-1.4-.4-2.1-.4-.2 0-.4-.1-.6-.1H51.2v-8.5zm221.9 37.7l73.3 73.3h-64.7c-4.7 0-8.5-3.8-8.5-8.5V63.3zm76.8 431.6H25.6c-4.7 0-8.5-3.8-8.5-8.5V59.7c0-4.7 3.8-8.5 8.5-8.5H256V128c0 14.1 11.5 25.6 25.6 25.6h76.8v53l-27.5 11.9c1.2-1.4 1.8-3.3 1.9-5.1 0-4.7-3.8-8.5-8.5-8.5H204.8c-4.7 0-8.5 3.8-8.5 8.5s3.8 8.5 8.5 8.5H323L283.5 239H51.2c-4.7 0-8.5 3.8-8.5 8.5s3.8 8.5 8.5 8.5h204.9c0 .1-.1.3-.1.4v16.7h-51.2c-4.7 0-8.5 3.8-8.5 8.5s3.8 8.5 8.5 8.5H256v17.1H51.2c-4.7 0-8.5 3.8-8.5 8.5s3.8 8.5 8.5 8.5H256v17.1h-51.2c-4.7 0-8.5 3.8-8.5 8.5s3.8 8.5 8.5 8.5H256v17.1H51.2c-4.7 0-8.5 3.8-8.5 8.5s3.8 8.5 8.5 8.5h205.9c.8 5.8 2.3 11.5 4.3 17.1h-56.6c-4.7 0-8.5 3.8-8.5 8.5s3.8 8.5 8.5 8.5H270c4 6.3 8.9 12 14.3 17.1H51.2c-4.7 0-8.5 3.8-8.5 8.5s3.8 8.5 8.5 8.5h256l46.5 33.1c-1.2.8-2.5 1.2-3.8 1.2zm145-115.1c-.1 22.5-11 43.7-29.4 56.7l-81.5 58-81.5-58c-18.4-13-29.3-34.1-29.4-56.7V262.1l15.4-6.7.2-.1 95.3-41.2L494.9 262v117.8z"/><path d="M380.6 234.1L295.3 271c-3.1 1.4-5.1 4.4-5.1 7.8v101c.1 17 8.4 33 22.3 42.8l66.7 47.5c3 2.1 6.9 2.1 9.9 0l66.7-47.5c13.9-9.8 22.2-25.8 22.3-42.8v-101c0-3.4-2-6.5-5.1-7.8l-85.3-36.9c-2.5-.9-4.9-.9-7.1 0zm80.2 50.4v95.3c-.1 11.5-5.7 22.3-15.1 28.9L384 452.6l-61.7-43.9c-9.4-6.6-15-17.4-15.1-28.9v-95.4l76.8-33.2 76.8 33.3z"/><path d="M337.9 360.1c-2.4-1.8-5.7-2.2-8.5-1-2.8 1.2-4.8 3.8-5.1 6.8-.4 3 .9 6 3.4 7.8l34.1 25.6c3.7 2.8 8.9 2.1 11.8-1.5l68.3-85.3c2.9-3.7 2.3-9.1-1.3-12s-9.1-2.3-12 1.3l-63.1 78.9-27.6-20.6z"/></svg>