<svg xmlns="http://www.w3.org/2000/svg" width="432" height="432"><path d="M300.3 194.2c-11.9 0-21.5 9.6-21.5 21.5v.2l-20.7 19c-7.3-6.3-17.9-7.1-26-1.7s-11.6 15.4-8.6 24.6l-18.9 16c-3.9-5-9.7-8-16-8.2-6.3-.3-12.4 2.3-16.6 6.9L152.6 259c2-10.6-4.1-21-14.3-24.4-10.2-3.4-21.3 1.1-26.2 10.7-4.9 9.6-1.9 21.3 6.9 27.4 8.8 6.2 20.8 4.9 28.1-2.9l19.4 13.5c-1.4 8 1.8 16.1 8.3 21 6.5 4.9 15.2 5.6 22.5 2 7.3-3.7 11.9-11.1 11.9-19.2 0-.5 0-1-.1-1.4l21.1-17.8c7.3 6.1 17.6 6.6 25.5 1.5s11.5-14.9 8.9-24l18.3-16.7c6 8.2 16.9 11.1 26.2 7s14.4-14.2 12.3-24.1c-2.2-10.3-11-17.4-21.1-17.4zm-169 70.3c-5.3 0-9.5-4.3-9.5-9.5 0-5.3 4.3-9.5 9.5-9.5 5.3 0 9.5 4.3 9.5 9.5.1 5.2-4.2 9.5-9.5 9.5zm56.3 32c-5.3 0-9.5-4.3-9.5-9.5s4.3-9.5 9.5-9.5c5.3 0 9.5 4.3 9.5 9.5.1 5.2-4.2 9.5-9.5 9.5zm56.4-35.9c-5.3 0-9.5-4.3-9.5-9.5 0-5.3 4.3-9.5 9.5-9.5 5.3 0 9.5 4.3 9.5 9.5 0 5.3-4.3 9.5-9.5 9.5zm56.3-35.3c-5.3 0-9.5-4.3-9.5-9.5 0-5.3 4.3-9.5 9.5-9.5 5.3 0 9.5 4.3 9.5 9.5s-4.3 9.5-9.5 9.5z"/><path d="M314 251.4h-27.5c-3.3 0-6 2.7-6 6v116.4c0 3.3 2.7 6 6 6H314c3.3 0 6-2.7 6-6V257.4c0-3.3-2.7-6-6-6zm-6 116.4h-15.5V263.4H308v104.4zM257.7 286.6h-27.5c-3.3 0-6 2.7-6 6v81.2c0 3.3 2.7 6 6 6h27.5c3.3 0 6-2.7 6-6v-81.2c0-3.3-2.7-6-6-6zm-6 81.2h-15.5v-69.2h15.5v69.2zM201.4 322.8h-27.5c-3.3 0-6 2.7-6 6v45c0 3.3 2.7 6 6 6h27.5c3.3 0 6-2.7 6-6v-45c0-3.3-2.7-6-6-6zm-6 45h-15.5v-33h15.5v33zM145.1 290.9h-27.5c-3.3 0-6 2.7-6 6v76.9c0 3.3 2.7 6 6 6h27.5c3.3 0 6-2.7 6-6v-76.9c0-3.3-2.7-6-6-6zm-6 76.9h-15.5v-64.9h15.5v64.9z"/><path d="M318.7 0h-195c-3.3 0-6 2.7-6 6v13.8H70.5C55.3 19.8 43 32.1 43 47.3v357.1c0 15.2 12.3 27.5 27.5 27.5H361c15.2 0 27.5-12.3 27.5-27.5V47.3c0-15.2-12.3-27.5-27.5-27.5h-36.4V6c.1-3.3-2.6-6-5.9-6zm-189 12h182.9v25H129.7V12zm231.4 19.8c8.6 0 15.5 7 15.5 15.5v357.1c0 8.6-7 15.5-15.5 15.5H70.5C62 420 55 413 55 404.5V47.3c0-8.6 7-15.5 15.5-15.5h47.2V43c0 3.3 2.7 6 6 6h194.9c3.3 0 6-2.7 6-6V31.8h36.5z"/><path d="M102.2 169.1h98.1c3.3 0 6-2.7 6-6v-53.8c0-3.3-2.7-6-6-6h-98.1c-3.3 0-6 2.7-6 6v53.8c0 3.3 2.7 6 6 6zm6-53.8h86.1v41.8h-86.1v-41.8zM329.4 157.1h-4.2c-3.3 0-6 2.7-6 6s2.7 6 6 6h4.2c3.3 0 6-2.7 6-6s-2.7-6-6-6zM251.7 169.1h45.8c3.3 0 6-2.7 6-6s-2.7-6-6-6h-45.8c-3.3 0-6 2.7-6 6s2.6 6 6 6zM277.3 109.3c0 3.3 2.7 6 6 6h46.1c3.3 0 6-2.7 6-6s-2.7-6-6-6h-46.1c-3.3 0-6 2.7-6 6zM251.7 115.3h3.8c3.3 0 6-2.7 6-6s-2.7-6-6-6h-3.8c-3.3 0-6 2.7-6 6s2.6 6 6 6zM153.6 213.1c0 3.3 2.7 6 6 6h70.7c3.3 0 6-2.7 6-6s-2.7-6-6-6h-70.7c-3.3 0-6 2.7-6 6zM129.8 207.1c-3.3 0-6 2.7-6 6s2.7 6 6 6h7.9c3.3 0 6-2.7 6-6s-2.7-6-6-6h-7.9zM114.2 213.1c0-3.3-2.7-6-6-6h-6c-3.3 0-6 2.7-6 6s2.7 6 6 6h6c3.3 0 6-2.7 6-6z"/></svg>