<svg id="Layer_1" xmlns="http://www.w3.org/2000/svg" width="512" height="512" viewBox="0 0 512 512"><style>.st1{fill:#b3404a}</style><path class="st1" d="M432.5 512h-37.8c-8 0-14.5-6.5-14.5-14.5s6.5-14.5 14.5-14.5h37.8c27.8 0 50.5-22.6 50.5-50.5v-353c0-27.8-22.6-50.5-50.5-50.5H214.4c-8 0-14.5-6.5-14.5-14.5S206.3 0 214.4 0h218.1C476.3 0 512 35.7 512 79.5v352.9c0 43.9-35.7 79.6-79.5 79.6zM289.7 512H79.5C35.7 512 0 476.3 0 432.5v-353C0 35.7 35.7 0 79.5 0h32.7c8 0 14.5 6.5 14.5 14.5S120.2 29 112.2 29H79.5C51.7 29 29 51.7 29 79.5v352.9c0 27.8 22.6 50.5 50.5 50.5h210.2c8 0 14.5 6.5 14.5 14.5 0 8.1-6.5 14.6-14.5 14.6z"/><path d="M359.6 102.1H152.4c-27.8 0-50.3 22.5-50.3 50.3v207.2c0 27.8 22.5 50.3 50.3 50.3h207.2c27.8 0 50.3-22.5 50.3-50.3V152.4c0-27.8-22.5-50.3-50.3-50.3zM256 330.8c-41.3 0-74.8-33.5-74.8-74.8s33.5-74.8 74.8-74.8 74.8 33.5 74.8 74.8-33.5 74.8-74.8 74.8z" fill="#f4b2b0"/><g><path class="st1" d="M359.6 424.5H152.4c-35.8 0-64.9-29.1-64.9-64.9V152.4c0-35.8 29.1-64.9 64.9-64.9h207.2c35.8 0 64.9 29.1 64.9 64.9v207.2c0 35.8-29.1 64.9-64.9 64.9zM152.4 116.6c-19.8 0-35.8 16.1-35.8 35.8v207.2c0 19.8 16.1 35.8 35.8 35.8h207.2c19.8 0 35.8-16.1 35.8-35.8V152.4c0-19.8-16.1-35.8-35.8-35.8H152.4zM256 345.3c-49.2 0-89.3-40.1-89.3-89.3s40.1-89.3 89.3-89.3 89.3 40.1 89.3 89.3-40.1 89.3-89.3 89.3zm0-149.6c-33.2 0-60.3 27-60.3 60.3s27 60.3 60.3 60.3 60.3-27 60.3-60.3-27.1-60.3-60.3-60.3z"/><circle class="st1" cx="346.4" cy="164.5" r="20.4"/></g></svg>