<svg id="Слой_1" xmlns="http://www.w3.org/2000/svg" xmlns:xlink="http://www.w3.org/1999/xlink" width="117" height="70" viewBox="0 0 117 70"><style>.st2{fill:#213148}.st3{fill:#e4be8d}.st5{opacity:.1}</style><pattern x="-8" y="241" width="70" height="70" patternUnits="userSpaceOnUse" id="Unnamed_Pattern" viewBox="0 -70 70 70" overflow="visible"><path fill="none" d="M0-70h70V0H0z"/><path fill="#fff" d="M0-70h70V0H0z"/><path class="st2" d="M44.8-34.9c-1 1.6-2.1 3.3-3.1 4.9-1 1.6-1.9 3.3-3 5-.6.8-1.8.1-1.4-.8.5-1.1 1.1-2.1 1.7-3.2-.4-.5-.9-.9-1.4-1.3-.4-.3.2-1 .6-.6l1.2 1.2c.1-.1.1-.2.2-.3-.5-.7-.9-1.5-1.3-2.3-.2-.5.5-1 .8-.5.3.6.6 1.3 1 1.9.2-.4.5-.8.8-1.1-.3-.6-.6-1.2-1-1.7-.2-.3-.1-.6.2-.7-2 0-4.1-.1-6.1-.4 1.2 1.7 2.3 3.6 3.1 5.5.2.5-.7.9-.9.4-1-2.3-2.3-4.5-4.1-6.4-.4-.5 0-1.2.6-1 3.8.8 7.6.7 11.4.4.6-.1.9.5.7 1m-4 .6c.3.4.6.9.8 1.3.4-.5.8-1.1 1.2-1.6-.7 0-1.4 0-2.1.1 0 0 .1.1.1.2M56.6-12.4c-.1-1.9-.1-3.9-.2-5.8s-.3-3.9-.3-5.8c0-1 1.4-1.1 1.6-.1.2 1.2.3 2.4.4 3.6.6.2 1.2.3 1.9.3.6 0 .4.9-.2.9-.6-.1-1.1-.2-1.7-.3v.4c.8.3 1.6.7 2.3 1.2.5.3.1 1.1-.4.8-.6-.3-1.3-.7-1.9-1v1.4c.6.4 1.2.6 1.8.8.3.1.4.4.2.7 1.7-1.2 3.4-2.2 5.3-3.1-2-.7-3.9-1.7-5.7-2.8-.5-.3.1-1.1.5-.8 2.2 1.4 4.5 2.4 7 3 .6.1.7 1 .1 1.2-3.6 1.5-6.6 3.7-9.7 6.1-.3.1-.9-.2-1-.7m2.9-2.7c-.5-.2-1-.4-1.4-.7 0 .7 0 1.3-.1 1.9.6-.4 1.1-.8 1.7-1.2h-.2M27-57.3c1-1.6 2.1-3.2 3.1-4.9 1-1.6 2-3.3 3.1-4.9.6-.8 1.8-.1 1.3.8-.5 1.1-1.1 2.1-1.8 3.2.4.5.9.9 1.4 1.3.4.3-.2 1-.6.6l-1.2-1.2c-.1.1-.1.2-.2.3.5.7.9 1.5 1.2 2.3.2.5-.5 1-.8.5-.3-.6-.6-1.3-1-1.9-.3.4-.5.7-.8 1.1.3.6.6 1.2 1 1.7.2.3.1.6-.2.7 2 0 4.1.1 6.1.5-1.2-1.7-2.2-3.6-3-5.6-.2-.5.7-.9.9-.4 1 2.4 2.3 4.6 4 6.5.4.5 0 1.2-.6 1-3.8-.8-7.6-.8-11.4-.6-.4.1-.8-.6-.5-1m3.9-.5c-.3-.4-.6-.9-.7-1.4L29-57.7h2.1s-.1-.1-.2-.1"/><path class="st3" d="M55.7-62.3c1.5 1.2 3 2.4 4.6 3.5 1.5 1.2 3.1 2.3 4.6 3.5.8.6-.1 1.8-.9 1.3-1-.6-2-1.3-3-2-.5.4-1 .8-1.4 1.2-.4.4-1-.3-.5-.7.4-.4.8-.8 1.3-1.1-.1-.1-.2-.2-.3-.2-.8.4-1.6.8-2.4 1-.5.2-.9-.6-.4-.8.7-.3 1.3-.5 2-.8-.4-.3-.7-.6-1-.9-.6.2-1.2.5-1.8.9-.3.2-.6 0-.7-.3-.2 2-.5 4.1-1 6 1.8-1.1 3.8-1.9 5.8-2.5.5-.2.8.8.3 1-2.4.8-4.7 1.9-6.8 3.4-.5.4-1.2-.1-1-.7 1.2-3.7 1.4-7.5 1.6-11.3-.1-.6.6-.8 1-.5m.2 3.9c.5-.3.9-.5 1.4-.6-.5-.4-1-.9-1.4-1.3 0 .7-.1 1.4-.2 2.1.1 0 .1-.1.2-.2"/><path d="M16.5-47c.3 1.9.5 3.8.8 5.7.3 1.9.7 3.8.9 5.7.1 1-1.3 1.2-1.5.3-.3-1.2-.5-2.3-.7-3.5-.8-.1-1.4-.2-2-.2-.6 0-.5-.9.1-.9s1.1.1 1.7.1c0-.1 0-.3-.1-.4-.8-.2-1.7-.5-2.4-.9-.5-.3-.2-1.1.3-.9.7.3 1.3.6 2 .8-.1-.4-.1-.9-.1-1.3-.6-.3-1.2-.5-1.9-.7-.3-.1-.4-.4-.3-.6-1.6 1.3-3.2 2.6-4.9 3.6 2.1.5 4 1.3 5.9 2.3.5.3.1 1.1-.5.9-2.3-1.1-4.7-2-7.2-2.3-.6-.1-.7-.9-.2-1.2 3.4-1.8 6.2-4.3 9.1-7 .3-.3.9 0 1 .5m-2.6 3c.5.1 1 .3 1.5.5 0-.6-.1-1.3-.1-1.9-.5.5-1.1.9-1.6 1.4h.2" fill="#d6dcdd"/><path class="st3" d="M23.8-12.9c-1.5 1.3-2.9 2.5-4.4 3.8-1.5 1.3-2.8 2.6-4.3 3.8-.8.6-1.7-.4-1.1-1.2.8-.9 1.7-1.7 2.6-2.5-.3-.6-.6-1.1-.9-1.7-.3-.5.5-.9.8-.4.3.5.6 1 .8 1.5l.3-.3c-.2-.8-.4-1.7-.5-2.5-.1-.6.8-.8.9-.2.1.7.2 1.4.4 2.1.3-.3.7-.6 1.1-.8-.1-.7-.2-1.3-.5-1.9-.1-.3.1-.6.4-.6-2-.6-3.9-1.3-5.7-2.2.7 2 1.1 4.1 1.3 6.2 0 .6-.9.7-1 .1-.3-2.5-.9-5-2-7.3-.3-.6.3-1.1.9-.8 3.4 1.9 7 2.9 10.8 3.8.3.1.5.8.1 1.1m-4-.5c.2.5.3 1 .3 1.5.5-.4 1-.8 1.6-1.2-.7-.2-1.4-.4-2-.6.1.1.1.2.1.3"/></pattern><g class="st5"><defs><path id="SVGID_1_" class="st5" d="M0 0h117v70H0z"/></defs><clipPath id="SVGID_2_"><use xlink:href="#SVGID_1_" overflow="visible"/></clipPath><pattern id="SVGID_3_" xlink:href="#Unnamed_Pattern" patternTransform="matrix(1 0 0 -1 -250 -982)" class="st5"/><path clip-path="url(#SVGID_2_)" fill="url(#SVGID_3_)" d="M-8-9h125v250H-8z"/></g></svg>