<svg id="Layer_1" xmlns="http://www.w3.org/2000/svg" width="512" height="512" viewBox="0 0 512 512"><style>.st0{fill:#2d527c}</style><path class="st0" d="M432.5 512h-37.8c-8 0-14.5-6.5-14.5-14.5s6.5-14.5 14.5-14.5h37.8c27.8 0 50.5-22.6 50.5-50.5v-353c0-27.8-22.6-50.5-50.5-50.5H214.4c-8 0-14.5-6.5-14.5-14.5S206.3 0 214.4 0h218.1C476.3 0 512 35.7 512 79.5v352.9c0 43.9-35.7 79.6-79.5 79.6zM289.7 512H79.5C35.7 512 0 476.3 0 432.5v-353C0 35.7 35.7 0 79.5 0h32.7c8 0 14.5 6.5 14.5 14.5S120.2 29 112.2 29H79.5C51.7 29 29 51.7 29 79.5v352.9c0 27.8 22.6 50.5 50.5 50.5h210.2c8 0 14.5 6.5 14.5 14.5s-6.5 14.6-14.5 14.6z"/><path d="M409.6 356.6c-11.8 0-26.2-.3-32.4-.5-1.9 0-3.1-.1-3.4-.1-9.9 0-18.4-3.4-25.3-10.1-5.6-5.4-11-11.3-16.2-17-3-3.2-6-6.5-9.1-9.8-3.1-3.3-6-5.9-9-8.1-3.8-2.9-7.8-4.4-11.7-4.4-6.4 0-11.6 4-14.4 11-3.2 8-5.6 27.6-5.7 28.9-.4 5.5-3.5 8.3-9.6 8.7-4 .2-7.9.3-11.6.3-24 0-44.3-4.6-62.1-14.1-17.9-9.6-34-23.6-49.1-43-19.1-24.4-36.3-52.7-55.8-91.7-.9-1.9-15.9-33.8-17.3-37.3-.4-1.7-.6-4.4.8-5.3 1.1-.1 4.4-.3 14.2-.3 16.3 0 40.4.5 41.7.5 6.7.4 10.4 3 13 9.5 11.4 28.2 25 51.9 41.5 72.6 2.5 3.2 5.8 6.2 9.5 8.7 2.6 1.8 5.4 2.7 8 2.7 5.1 0 9.2-3.2 11.2-8.7 2.2-6.2 4-17.5 4.1-23.6.3-14.8 0-24.4-.8-39.2-.7-13.7-7.3-21.9-19.9-24.9 3.8-4.2 9.1-5.2 17.1-5.6 4.5-.2 9.4-.4 15-.4 5.2 0 10.5.1 15.7.2 3.6.1 7.2.1 10.8.2 6 .1 11.1.6 15.8 1.6 2.8.6 6.7 2.2 7.9 9.1.6 3.5.9 6.9.8 10.1-.1 6.5-.4 13.2-.6 19.6-.3 9.3-.6 18.8-.7 28.3-.1 7.3.5 14.1 1.9 20.1 1.7 7.9 6.5 12.6 12.6 12.6 2.6 0 6.6-.9 10.8-5.3 6.7-6.9 13.1-15 20.9-26.2 10.2-14.6 18.9-31.6 27.6-53.5 2.9-7.3 3.7-7.9 11.4-7.9H424.6c3.4 0 6.2.4 8.4 1.1 1.5.5 2.9 1.2 2.1 4.5-2.7 12.1-9.7 22.6-16 31.6-7.7 10.9-15.8 21.7-23.6 32.3-4.1 5.5-8.2 11.1-12.3 16.7-1.5 2-2.9 4.3-4.5 7.2-5.8 10.5-4.9 17.8 3.3 26.3 4.3 4.5 8.8 8.9 13.2 13.1 6.1 6 12.5 12.2 18.3 18.6 7.4 8.1 13.9 16.5 19.3 25.1 2.5 4 3.2 7.8 2 10.5-1.2 2.6-4.3 4.4-8.8 5.1-1.3-.1-5.2.2-16.4.2z" fill="#cee8fa"/><path class="st0" d="M409.6 371.1c-11.9 0-26.4-.3-32.6-.5-1.8 0-2.9-.1-3.2-.1-13.5-.1-25.7-4.9-35.2-14.1-5.9-5.7-11.5-11.7-16.9-17.6l-.2-.2c-2.9-3.1-5.8-6.3-8.7-9.4-2.6-2.7-4.9-4.9-7.3-6.6-1.3-1-2.3-1.4-2.7-1.4-.2.2-.6.7-1 1.8-2 5-4.3 20.2-4.7 24.7-1 12.8-9.9 21.2-23.3 22-4.3.2-8.4.3-12.4.3-26.5 0-49-5.2-68.9-15.8-19.7-10.6-37.3-25.9-53.7-46.8-19.7-25.2-37.4-54.2-57.4-94.2-.8-1.7-16.1-34.2-17.8-38.5-.3-.6-.5-1.3-.6-1.9-2.1-8.7.5-16.8 7-20.9 2-1.3 4.2-2.1 6.5-2.3.9-.1 3.6-.3 15.5-.3 16.7 0 40.8.5 42.3.6h.3c12.3.7 21 6.9 25.7 18.5 10.9 26.9 23.8 49.4 39.4 69 1.2 1.5 2.7 3 4.4 4.3 1.3-5 2.4-12.5 2.5-16.4.3-14.4 0-23.8-.8-38.2-.4-8.1-3.2-10.2-8.8-11.6-5-1.2-9-5-10.5-9.9s-.3-10.3 3.2-14.1c7.6-8.2 17.4-9.8 26.9-10.3 4.7-.3 9.9-.4 15.7-.4 5.4 0 10.7.1 15.9.2 3.6.1 7.1.1 10.7.2 6.9.1 13.1.7 18.7 1.9 10.3 2.2 17.3 9.9 19.1 20.9.7 4.4 1.1 8.7 1 12.8-.1 6.5-.4 13.1-.6 19.5v.3c-.3 9.3-.6 18.7-.7 28-.1 5.9.4 11.3 1.4 16 5.8-6.1 11.5-13.4 18.4-23.3 9.5-13.6 17.8-29.7 26-50.6 5.1-12.9 11.2-17 24.9-17.1 19.1 0 38.3-.1 57.5 0 4.9 0 9.1.6 12.8 1.8 9.4 3 14.1 11.6 11.9 21.5-3.3 14.7-11.2 26.7-18.3 36.7-7.8 11-15.9 21.9-23.7 32.4-4.2 5.6-8.3 11.1-12.3 16.7-1.1 1.5-2.3 3.3-3.5 5.6-2.8 5.1-2.5 5.5 1 9.1 4.2 4.3 8.6 8.6 12.9 12.8 6.3 6.2 12.8 12.5 18.9 19.2 8 8.7 15 17.8 20.8 27.1 5.2 8.2 6.3 17.1 2.9 24.4-1.9 4.2-7.1 11.5-19.9 13.4-2.1.4-6 .8-18.5.8zm-107-79c7.1 0 14.1 2.6 20.5 7.4 3.5 2.7 7 5.8 10.7 9.7 3.1 3.3 6.2 6.6 9.1 9.8l.2.2c5.1 5.5 10.3 11.2 15.6 16.3 4.2 4 9.2 6 15.2 6 .4 0 1.7 0 3.7.1 6.2.1 20.5.5 32 .5h6.7c-4-5.7-8.6-11.3-13.6-16.8-5.5-6-11.7-12.1-17.7-17.9-4.5-4.4-9-8.8-13.5-13.4-12.7-13.1-14.5-27.3-5.6-43.4 1.9-3.4 3.7-6.2 5.5-8.7 4.1-5.6 8.2-11.2 12.4-16.7 7.8-10.5 15.8-21.3 23.4-32 3.1-4.4 6.4-9.2 9-14.2h-47.5c-8.9 22.4-18.1 40-28.7 55.2-8.3 11.8-15.2 20.5-22.4 28-7.8 8.1-15.8 9.7-21.3 9.7-13.1 0-23.6-9.4-26.8-24-1.6-7.1-2.3-15-2.2-23.4.1-9.6.4-19.2.7-28.5v-.4c.2-6.3.4-12.8.6-19.2 0-1.6-.1-3.4-.3-5.2-2.9-.4-6.2-.7-9.8-.7-3.7 0-7.3-.1-11-.2-5.4-.1-11-.2-16.4-.2 1.9 4.6 3 9.9 3.3 15.6.8 15.2 1.2 25.1.9 40.3-.1 7.3-2.2 20.4-4.9 28.2-4 11.3-13.5 18.3-24.8 18.3-5.6 0-11.2-1.8-16.2-5.3-4.9-3.3-9.2-7.3-12.6-11.6-17.4-21.8-31.7-46.7-43.6-76.2-.1-.1-.1-.3-.2-.4-2.2-.1-21-.4-36-.5 4.4 9.5 9.6 20.5 10.3 21.9 19 38.1 35.7 65.6 54.2 89.2 13.9 17.7 28.4 30.5 44.5 39.1 15.6 8.3 33.6 12.4 55.2 12.4 2.4 0 4.8 0 7.4-.1 1-7.1 3.1-20.8 6.1-28.5 5-12.8 15.4-20.4 27.9-20.4z"/></svg>