<svg id="Layer_1" xmlns="http://www.w3.org/2000/svg" width="512" height="512" viewBox="0 0 512 512"><style>.st0{fill:#507c5c}</style><path class="st0" d="M256 422.1c-20.1 0-39.7-3.5-58.3-10.5l-70.4 10.1c-4.5.6-9-.8-12.3-4-3.2-3.2-4.8-7.7-4.2-12.2l7.3-56.7c-18.5-27.5-28.3-59.4-28.3-92.7C89.8 164.5 164.3 90 255.9 90s166.2 74.4 166.2 166S347.6 422.1 256 422.1zm-56.6-40c1.9 0 3.7.4 5.4 1.1 16.3 6.5 33.5 9.9 51.1 9.9 75.6 0 137-61.5 137-137s-61.5-137-137-137-137 61.5-137 137c0 29.1 9 57 26.1 80.5 2.2 3 3.1 6.7 2.7 10.4l-5.6 43.3 55.2-8c.7-.2 1.4-.2 2.1-.2z"/><path class="st0" d="M432.5 512h-37.8c-8 0-14.5-6.5-14.5-14.5s6.5-14.5 14.5-14.5h37.8c27.8 0 50.5-22.6 50.5-50.5v-353c0-27.8-22.6-50.5-50.5-50.5H214.4c-8 0-14.5-6.5-14.5-14.5S206.3 0 214.4 0h218.1C476.3 0 512 35.7 512 79.5v352.9c0 43.9-35.7 79.6-79.5 79.6zM289.7 512H79.5C35.7 512 0 476.3 0 432.5v-353C0 35.7 35.7 0 79.5 0h32.7c8 0 14.5 6.5 14.5 14.5S120.2 29 112.2 29H79.5C51.7 29 29 51.7 29 79.5v352.9c0 27.8 22.6 50.5 50.5 50.5h210.2c8 0 14.5 6.5 14.5 14.5s-6.5 14.6-14.5 14.6z"/><path d="M288.4 280.1l-9.7 9.7c-.8-.5-1.7-.9-2.6-1.4-8.4-4.6-18.7-9.8-30.7-21.9-12.1-12.1-17.3-22.4-21.9-30.8-.5-.9-.7-1.5-1.2-2.3l9.1-8.6.9-.9c7.2-7.2 7.2-19 0-26.2L218 183.5c-7.3-7.3-19.1-7.2-26.3.1l-3.8 3.9c-2.5 3.2-4.6 6.9-6.1 10.8-1.4 3.8-2.3 7.3-2.7 10.9-3.5 28.7 3.5 48.8 39.1 84.5 49.3 49.3 82.5 39.7 84.3 39.5 3.7-.4 7.6-1.6 11.2-3 3.9-1.5 7.6-3.7 10.8-6.1l3.9-3.8c7.3-7.2 7.4-19 .1-26.3l-13.7-13.7c-7.4-7.5-19.2-7.5-26.4-.2z" fill="#cff09e"/><path class="st0" d="M293.6 348.5c-18.8 0-48.8-7.7-85.7-44.6-36.6-36.6-47.5-61-43.3-96.4.5-4.7 1.7-9.5 3.6-14.4 0 0 0-.1.1-.1 2.1-5.3 4.8-10.1 8.2-14.4.3-.4.7-.8 1.1-1.2l3.8-3.9c6.3-6.4 14.6-9.9 23.6-9.9 8.8 0 17.1 3.4 23.4 9.7l14.3 14.3c6.2 6.2 9.7 14.5 9.7 23.4 0 8.8-3.4 17.1-9.7 23.4l-.9.9-.3.3-.9.9c3.5 6 7.9 12.6 15.2 19.9 7.6 7.6 14.3 12 20.5 15.6l2-2c6.2-6.2 14.5-9.7 23.4-9.7s17.1 3.4 23.4 9.7l13.7 13.7c6.3 6.3 9.7 14.6 9.7 23.5s-3.5 17.2-9.9 23.4l-3.9 3.8c-.4.4-.8.7-1.2 1.1-4.3 3.4-9.3 6.2-14.5 8.2-5.3 2-9.9 3.3-14.3 3.9-1.7.2-5.5.9-11.1.9zm-98.3-145.1c-1 2.6-1.6 5-1.8 7.3v.2c-2.8 23.1 1.6 39.1 35 72.5 31.4 31.4 54.3 36.1 65.2 36.1 3 0 4.8-.4 5.5-.5.8-.2 1.4-.2 1.7-.3 1.9-.2 4.5-.9 7.6-2.1 2.2-.9 4.5-2.1 6.5-3.6l3.2-3.2c1-1 1.2-2.1 1.2-2.8 0-.8-.2-1.9-1.2-2.9l-13.7-13.7c-1-1-2.1-1.2-2.8-1.2-.8 0-1.9.2-2.8 1.2l-9.7 9.7c-4.6 4.6-11.6 5.6-17.2 2.5l-.9-.5c-.6-.3-1.3-.7-1.9-1L267 300c-8.2-4.5-19.4-10.7-31.9-23.2-12.6-12.6-18.8-23.9-23.4-32.1l-1-1.8c-.4-.8-.8-1.4-1.1-2.1l-.1-.3c-3.2-5.8-2.1-13 2.8-17.6l9.8-9.2c1-1 1.2-2.1 1.2-2.8s-.3-1.9-1.3-2.9l-14.3-14.3c-1-1-2.1-1.2-2.8-1.2-.8 0-1.9.2-2.9 1.2l-3.2 3.2c-1.4 2-2.6 4.2-3.5 6.5z"/></svg>